<?xml version="1.0" encoding="utf-8" standalone="no"?>
<!DOCTYPE svg PUBLIC "-//W3C//DTD SVG 1.1//EN"
  "http://www.w3.org/Graphics/SVG/1.1/DTD/svg11.dtd">
<svg xmlns:xlink="http://www.w3.org/1999/xlink" width="720pt" height="288pt" viewBox="0 0 720 288" xmlns="http://www.w3.org/2000/svg" version="1.1">
 <metadata>
  <rdf:RDF xmlns:dc="http://purl.org/dc/elements/1.1/" xmlns:cc="http://creativecommons.org/ns#" xmlns:rdf="http://www.w3.org/1999/02/22-rdf-syntax-ns#">
   <cc:Work>
    <dc:type rdf:resource="http://purl.org/dc/dcmitype/StillImage"/>
    <dc:date>2025-04-17T16:16:29.238779</dc:date>
    <dc:format>image/svg+xml</dc:format>
    <dc:creator>
     <cc:Agent>
      <dc:title>Matplotlib v3.5.3, https://matplotlib.org/</dc:title>
     </cc:Agent>
    </dc:creator>
   </cc:Work>
  </rdf:RDF>
 </metadata>
 <defs>
  <style type="text/css">*{stroke-linejoin: round; stroke-linecap: butt}</style>
 </defs>
 <g id="figure_1">
  <g id="patch_1">
   <path d="M 0 288 
L 720 288 
L 720 0 
L 0 0 
z
" style="fill: #ffffff"/>
  </g>
  <g id="axes_1">
   <g id="patch_2">
    <path d="M 50.87 246.04 
L 350.415 246.04 
L 350.415 32.976 
L 50.87 32.976 
z
" style="fill: #ffffff"/>
   </g>
   <g id="PolyCollection_1">
    <path d="M 64.485682 207.804643 
L 64.485682 236.355273 
L 67.236325 234.459919 
L 69.986967 232.88334 
L 72.73761 231.090386 
L 75.488253 229.234502 
L 78.238896 227.649874 
L 80.989539 225.88492 
L 83.740181 224.020637 
L 86.490824 222.160817 
L 89.241467 220.304148 
L 91.99211 218.614546 
L 94.742753 217.022574 
L 97.493395 215.449471 
L 100.244038 213.523318 
L 102.994681 211.543771 
L 105.745324 209.851062 
L 108.495966 208.206672 
L 111.246609 206.562282 
L 113.997252 204.914625 
L 116.747895 203.262428 
L 119.498538 201.410204 
L 122.24918 199.918232 
L 124.999823 198.104247 
L 127.750466 196.377573 
L 130.501109 194.616002 
L 133.251752 192.932406 
L 136.002394 191.266333 
L 138.753037 189.684296 
L 141.50368 188.050915 
L 144.254323 186.411182 
L 147.004966 184.851319 
L 149.755608 183.306302 
L 152.506251 181.671532 
L 155.256894 180.10862 
L 158.007537 178.559464 
L 160.75818 176.95446 
L 163.508822 175.409334 
L 166.259465 173.989783 
L 169.010108 172.463699 
L 171.760751 170.979172 
L 174.511393 169.525878 
L 177.262036 167.99613 
L 180.012679 166.369163 
L 182.763322 164.857181 
L 185.513965 163.447096 
L 188.264607 161.969923 
L 191.01525 160.583353 
L 193.765893 159.020079 
L 196.516536 157.371161 
L 199.267179 156.118458 
L 202.017821 154.722423 
L 204.768464 153.125244 
L 207.519107 151.773427 
L 210.26975 150.307812 
L 213.020393 148.854798 
L 215.771035 147.372634 
L 218.521678 145.883695 
L 221.272321 144.398332 
L 224.022964 142.925071 
L 226.773607 141.428261 
L 229.524249 139.943225 
L 232.274892 138.460853 
L 235.025535 136.973154 
L 237.776178 135.330928 
L 240.52682 134.002872 
L 243.277463 132.526475 
L 246.028106 131.1163 
L 248.778749 129.629284 
L 251.529392 128.161789 
L 254.280034 126.687606 
L 257.030677 125.292596 
L 259.78132 123.995919 
L 262.531963 122.63788 
L 265.282606 121.222026 
L 268.033248 119.819018 
L 270.783891 118.471967 
L 273.534534 117.085295 
L 276.285177 115.698342 
L 279.03582 114.311389 
L 281.786462 112.922573 
L 284.537105 111.544669 
L 287.287748 110.158238 
L 290.038391 108.79139 
L 292.789034 107.369597 
L 295.539676 105.99364 
L 298.290319 104.66439 
L 301.040962 103.32144 
L 303.791605 101.954678 
L 306.542247 100.55817 
L 309.29289 99.129086 
L 312.043533 97.700003 
L 314.794176 96.270919 
L 317.544819 94.882238 
L 320.295461 93.493494 
L 323.046104 92.208229 
L 325.796747 90.753904 
L 328.54739 89.3323 
L 331.298033 87.944816 
L 334.048675 86.557331 
L 336.799318 85.249581 
L 336.799318 42.660727 
L 336.799318 42.660727 
L 334.048675 44.642364 
L 331.298033 46.624 
L 328.54739 48.528806 
L 325.796747 50.4202 
L 323.046104 52.311593 
L 320.295461 54.202987 
L 317.544819 56.128309 
L 314.794176 58.141606 
L 312.043533 60.082487 
L 309.29289 61.840899 
L 306.542247 63.61258 
L 303.791605 65.360536 
L 301.040962 67.122996 
L 298.290319 69.069412 
L 295.539676 70.894761 
L 292.789034 72.698435 
L 290.038391 74.615365 
L 287.287748 76.493608 
L 284.537105 78.352861 
L 281.786462 80.095482 
L 279.03582 81.785121 
L 276.285177 83.502166 
L 273.534534 85.301446 
L 270.783891 87.100897 
L 268.033248 88.900348 
L 265.282606 90.699799 
L 262.531963 92.504661 
L 259.78132 94.410973 
L 257.030677 96.244887 
L 254.280034 98.03443 
L 251.529392 99.796704 
L 248.778749 101.558978 
L 246.028106 103.333571 
L 243.277463 105.117726 
L 240.52682 106.924865 
L 237.776178 108.709368 
L 235.025535 110.509137 
L 232.274892 112.310055 
L 229.524249 114.287043 
L 226.773607 116.205688 
L 224.022964 118.164106 
L 221.272321 120.099464 
L 218.521678 121.902025 
L 215.771035 123.374454 
L 213.020393 125.009643 
L 210.26975 126.912416 
L 207.519107 128.597653 
L 204.768464 130.498884 
L 202.017821 132.470055 
L 199.267179 134.228403 
L 196.516536 135.74589 
L 193.765893 137.432828 
L 191.01525 139.31757 
L 188.264607 141.082011 
L 185.513965 142.75164 
L 182.763322 144.367063 
L 180.012679 146.123385 
L 177.262036 147.770622 
L 174.511393 149.379016 
L 171.760751 150.985448 
L 169.010108 152.513153 
L 166.259465 154.172419 
L 163.508822 155.705248 
L 160.75818 157.220351 
L 158.007537 158.832369 
L 155.256894 160.337675 
L 152.506251 161.879673 
L 149.755608 163.431233 
L 147.004966 164.850758 
L 144.254323 166.439798 
L 141.50368 167.948547 
L 138.753037 169.400411 
L 136.002394 170.8532 
L 133.251752 172.442021 
L 130.501109 173.865895 
L 127.750466 175.387883 
L 124.999823 176.910448 
L 122.24918 178.441052 
L 119.498538 179.967008 
L 116.747895 181.489719 
L 113.997252 183.011659 
L 111.246609 184.331577 
L 108.495966 185.648777 
L 105.745324 187.066983 
L 102.994681 188.477191 
L 100.244038 189.834148 
L 97.493395 191.335864 
L 94.742753 192.759636 
L 91.99211 194.060611 
L 89.241467 195.498816 
L 86.490824 196.941202 
L 83.740181 198.298076 
L 80.989539 199.6559 
L 78.238896 201.016393 
L 75.488253 202.376886 
L 72.73761 203.865533 
L 69.986967 205.197929 
L 67.236325 206.484169 
L 64.485682 207.804643 
z
" clip-path="url(#pd69f6b95a7)" style="fill-opacity: 0.15"/>
   </g>
   <g id="PathCollection_1">
    <path d="M 201.82247 127.84461 
C 202.618079 127.84461 203.38121 127.528511 203.94379 126.96593 
C 204.506371 126.40335 204.82247 125.640219 204.82247 124.84461 
C 204.82247 124.049001 204.506371 123.28587 203.94379 122.72329 
C 203.38121 122.160709 202.618079 121.84461 201.82247 121.84461 
C 201.026861 121.84461 200.26373 122.160709 199.70115 122.72329 
C 199.138569 123.28587 198.82247 124.049001 198.82247 124.84461 
C 198.82247 125.640219 199.138569 126.40335 199.70115 126.96593 
C 200.26373 127.528511 201.026861 127.84461 201.82247 127.84461 
z
" clip-path="url(#pd69f6b95a7)" style="fill: #4169e1; stroke: #ffffff; stroke-width: 0.48"/>
    <path d="M 161.161694 202.401475 
L 162.661694 200.901475 
L 164.161694 202.401475 
L 165.661694 200.901475 
L 164.161694 199.401475 
L 165.661694 197.901475 
L 164.161694 196.401475 
L 162.661694 197.901475 
L 161.161694 196.401475 
L 159.661694 197.901475 
L 161.161694 199.401475 
L 159.661694 200.901475 
z
" clip-path="url(#pd69f6b95a7)" style="stroke: #ffffff; stroke-width: 0.48"/>
    <path d="M 298.402175 111.604433 
C 299.197784 111.604433 299.960915 111.288334 300.523495 110.725753 
C 301.086076 110.163172 301.402175 109.400042 301.402175 108.604433 
C 301.402175 107.808823 301.086076 107.045693 300.523495 106.483112 
C 299.960915 105.920532 299.197784 105.604433 298.402175 105.604433 
C 297.606566 105.604433 296.843435 105.920532 296.280855 106.483112 
C 295.718274 107.045693 295.402175 107.808823 295.402175 108.604433 
C 295.402175 109.400042 295.718274 110.163172 296.280855 110.725753 
C 296.843435 111.288334 297.606566 111.604433 298.402175 111.604433 
z
" clip-path="url(#pd69f6b95a7)" style="stroke: #ffffff; stroke-width: 0.48"/>
    <path d="M 145.941268 207.097734 
C 146.736877 207.097734 147.500008 206.781636 148.062589 206.219055 
C 148.625169 205.656474 148.941268 204.893344 148.941268 204.097734 
C 148.941268 203.302125 148.625169 202.538995 148.062589 201.976414 
C 147.500008 201.413833 146.736877 201.097734 145.941268 201.097734 
C 145.145659 201.097734 144.382529 201.413833 143.819948 201.976414 
C 143.257367 202.538995 142.941268 203.302125 142.941268 204.097734 
C 142.941268 204.893344 143.257367 205.656474 143.819948 206.219055 
C 144.382529 206.781636 145.145659 207.097734 145.941268 207.097734 
z
" clip-path="url(#pd69f6b95a7)" style="stroke: #ffffff; stroke-width: 0.48"/>
    <path d="M 178.915639 127.733013 
L 180.415639 126.233013 
L 181.915639 127.733013 
L 183.415639 126.233013 
L 181.915639 124.733013 
L 183.415639 123.233013 
L 181.915639 121.733013 
L 180.415639 123.233013 
L 178.915639 121.733013 
L 177.415639 123.233013 
L 178.915639 124.733013 
L 177.415639 126.233013 
z
" clip-path="url(#pd69f6b95a7)" style="fill: #4169e1; stroke: #ffffff; stroke-width: 0.48"/>
    <path d="M 85.421848 212.277196 
L 86.921848 210.777196 
L 88.421848 212.277196 
L 89.921848 210.777196 
L 88.421848 209.277196 
L 89.921848 207.777196 
L 88.421848 206.277196 
L 86.921848 207.777196 
L 85.421848 206.277196 
L 83.921848 207.777196 
L 85.421848 209.277196 
L 83.921848 210.777196 
z
" clip-path="url(#pd69f6b95a7)" style="fill: #4169e1; stroke: #ffffff; stroke-width: 0.48"/>
    <path d="M 335.299318 76.454964 
L 336.799318 74.954964 
L 338.299318 76.454964 
L 339.799318 74.954964 
L 338.299318 73.454964 
L 339.799318 71.954964 
L 338.299318 70.454964 
L 336.799318 71.954964 
L 335.299318 70.454964 
L 333.799318 71.954964 
L 335.299318 73.454964 
L 333.799318 74.954964 
z
" clip-path="url(#pd69f6b95a7)" style="fill: #4169e1; stroke: #ffffff; stroke-width: 0.48"/>
    <path d="M 135.068389 185.587208 
C 135.863998 185.587208 136.627128 185.271109 137.189709 184.708528 
C 137.75229 184.145947 138.068389 183.382817 138.068389 182.587208 
C 138.068389 181.791598 137.75229 181.028468 137.189709 180.465887 
C 136.627128 179.903306 135.863998 179.587208 135.068389 179.587208 
C 134.27278 179.587208 133.509649 179.903306 132.947069 180.465887 
C 132.384488 181.028468 132.068389 181.791598 132.068389 182.587208 
C 132.068389 183.382817 132.384488 184.145947 132.947069 184.708528 
C 133.509649 185.271109 134.27278 185.587208 135.068389 185.587208 
z
" clip-path="url(#pd69f6b95a7)" style="stroke: #ffffff; stroke-width: 0.48"/>
    <path d="M 62.985682 211.611068 
L 64.485682 210.111068 
L 65.985682 211.611068 
L 67.485682 210.111068 
L 65.985682 208.611068 
L 67.485682 207.111068 
L 65.985682 205.611068 
L 64.485682 207.111068 
L 62.985682 205.611068 
L 61.485682 207.111068 
L 62.985682 208.611068 
L 61.485682 210.111068 
z
" clip-path="url(#pd69f6b95a7)" style="fill: #4169e1; stroke: #ffffff; stroke-width: 0.48"/>
    <path d="M 233.418117 99.468018 
L 234.918117 97.968018 
L 236.418117 99.468018 
L 237.918117 97.968018 
L 236.418117 96.468018 
L 237.918117 94.968018 
L 236.418117 93.468018 
L 234.918117 94.968018 
L 233.418117 93.468018 
L 231.918117 94.968018 
L 233.418117 96.468018 
L 231.918117 97.968018 
z
" clip-path="url(#pd69f6b95a7)" style="fill: #b22222; stroke: #ffffff; stroke-width: 0.48"/>
    <path d="M 82.923827 221.714584 
L 84.423827 220.214584 
L 85.923827 221.714584 
L 87.423827 220.214584 
L 85.923827 218.714584 
L 87.423827 217.214584 
L 85.923827 215.714584 
L 84.423827 217.214584 
L 82.923827 215.714584 
L 81.423827 217.214584 
L 82.923827 218.714584 
L 81.423827 220.214584 
z
" clip-path="url(#pd69f6b95a7)" style="fill: #4169e1; stroke: #ffffff; stroke-width: 0.48"/>
    <path d="M 98.372228 201.081874 
L 99.872228 199.581874 
L 101.372228 201.081874 
L 102.872228 199.581874 
L 101.372228 198.081874 
L 102.872228 196.581874 
L 101.372228 195.081874 
L 99.872228 196.581874 
L 98.372228 195.081874 
L 96.872228 196.581874 
L 98.372228 198.081874 
L 96.872228 199.581874 
z
" clip-path="url(#pd69f6b95a7)" style="fill: #4169e1; stroke: #ffffff; stroke-width: 0.48"/>
    <path d="M 160.044488 154.817617 
L 161.544488 153.317617 
L 163.044488 154.817617 
L 164.544488 153.317617 
L 163.044488 151.817617 
L 164.544488 150.317617 
L 163.044488 148.817617 
L 161.544488 150.317617 
L 160.044488 148.817617 
L 158.544488 150.317617 
L 160.044488 151.817617 
L 158.544488 153.317617 
z
" clip-path="url(#pd69f6b95a7)" style="fill: #4169e1; stroke: #ffffff; stroke-width: 0.48"/>
    <path d="M 85.875776 192.15875 
C 86.671385 192.15875 87.434515 191.842651 87.997096 191.28007 
C 88.559677 190.71749 88.875776 189.954359 88.875776 189.15875 
C 88.875776 188.363141 88.559677 187.60001 87.997096 187.03743 
C 87.434515 186.474849 86.671385 186.15875 85.875776 186.15875 
C 85.080166 186.15875 84.317036 186.474849 83.754455 187.03743 
C 83.191875 187.60001 82.875776 188.363141 82.875776 189.15875 
C 82.875776 189.954359 83.191875 190.71749 83.754455 191.28007 
C 84.317036 191.842651 85.080166 192.15875 85.875776 192.15875 
z
" clip-path="url(#pd69f6b95a7)" style="fill: #b22222; stroke: #ffffff; stroke-width: 0.48"/>
    <path d="M 256.751814 117.881452 
L 258.251814 116.381452 
L 259.751814 117.881452 
L 261.251814 116.381452 
L 259.751814 114.881452 
L 261.251814 113.381452 
L 259.751814 111.881452 
L 258.251814 113.381452 
L 256.751814 111.881452 
L 255.251814 113.381452 
L 256.751814 114.881452 
L 255.251814 116.381452 
z
" clip-path="url(#pd69f6b95a7)" style="stroke: #ffffff; stroke-width: 0.48"/>
    <path d="M 218.973946 133.598161 
L 220.473946 132.098161 
L 221.973946 133.598161 
L 223.473946 132.098161 
L 221.973946 130.598161 
L 223.473946 129.098161 
L 221.973946 127.598161 
L 220.473946 129.098161 
L 218.973946 127.598161 
L 217.473946 129.098161 
L 218.973946 130.598161 
L 217.473946 132.098161 
z
" clip-path="url(#pd69f6b95a7)" style="fill: #4169e1; stroke: #ffffff; stroke-width: 0.48"/>
    <path d="M 127.670631 224.72424 
L 129.170631 223.22424 
L 130.670631 224.72424 
L 132.170631 223.22424 
L 130.670631 221.72424 
L 132.170631 220.22424 
L 130.670631 218.72424 
L 129.170631 220.22424 
L 127.670631 218.72424 
L 126.170631 220.22424 
L 127.670631 221.72424 
L 126.170631 223.22424 
z
" clip-path="url(#pd69f6b95a7)" style="stroke: #ffffff; stroke-width: 0.48"/>
   </g>
   <g id="PathCollection_2"/>
   <g id="PathCollection_3"/>
   <g id="PathCollection_4"/>
   <g id="PathCollection_5"/>
   <g id="PathCollection_6"/>
   <g id="matplotlib.axis_1">
    <g id="xtick_1">
     <g id="line2d_1">
      <defs>
       <path id="m7360720c65" d="M 0 0 
L 0 3.5 
" style="stroke: #000000; stroke-width: 0.8"/>
      </defs>
      <g>
       <use xlink:href="#m7360720c65" x="77.394219" y="246.04" style="stroke: #000000; stroke-width: 0.8"/>
      </g>
     </g>
     <g id="text_1">
      <!-- 60 -->
      <g transform="translate(71.031719 260.638438)scale(0.1 -0.1)">
       <defs>
        <path id="DejaVuSans-36" d="M 2113 2584 
Q 1688 2584 1439 2293 
Q 1191 2003 1191 1497 
Q 1191 994 1439 701 
Q 1688 409 2113 409 
Q 2538 409 2786 701 
Q 3034 994 3034 1497 
Q 3034 2003 2786 2293 
Q 2538 2584 2113 2584 
z
M 3366 4563 
L 3366 3988 
Q 3128 4100 2886 4159 
Q 2644 4219 2406 4219 
Q 1781 4219 1451 3797 
Q 1122 3375 1075 2522 
Q 1259 2794 1537 2939 
Q 1816 3084 2150 3084 
Q 2853 3084 3261 2657 
Q 3669 2231 3669 1497 
Q 3669 778 3244 343 
Q 2819 -91 2113 -91 
Q 1303 -91 875 529 
Q 447 1150 447 2328 
Q 447 3434 972 4092 
Q 1497 4750 2381 4750 
Q 2619 4750 2861 4703 
Q 3103 4656 3366 4563 
z
" transform="scale(0.015625)"/>
        <path id="DejaVuSans-30" d="M 2034 4250 
Q 1547 4250 1301 3770 
Q 1056 3291 1056 2328 
Q 1056 1369 1301 889 
Q 1547 409 2034 409 
Q 2525 409 2770 889 
Q 3016 1369 3016 2328 
Q 3016 3291 2770 3770 
Q 2525 4250 2034 4250 
z
M 2034 4750 
Q 2819 4750 3233 4129 
Q 3647 3509 3647 2328 
Q 3647 1150 3233 529 
Q 2819 -91 2034 -91 
Q 1250 -91 836 529 
Q 422 1150 422 2328 
Q 422 3509 836 4129 
Q 1250 4750 2034 4750 
z
" transform="scale(0.015625)"/>
       </defs>
       <use xlink:href="#DejaVuSans-36"/>
       <use xlink:href="#DejaVuSans-30" x="63.623047"/>
      </g>
     </g>
    </g>
    <g id="xtick_2">
     <g id="line2d_2">
      <g>
       <use xlink:href="#m7360720c65" x="119.237125" y="246.04" style="stroke: #000000; stroke-width: 0.8"/>
      </g>
     </g>
     <g id="text_2">
      <!-- 80 -->
      <g transform="translate(112.874625 260.638438)scale(0.1 -0.1)">
       <defs>
        <path id="DejaVuSans-38" d="M 2034 2216 
Q 1584 2216 1326 1975 
Q 1069 1734 1069 1313 
Q 1069 891 1326 650 
Q 1584 409 2034 409 
Q 2484 409 2743 651 
Q 3003 894 3003 1313 
Q 3003 1734 2745 1975 
Q 2488 2216 2034 2216 
z
M 1403 2484 
Q 997 2584 770 2862 
Q 544 3141 544 3541 
Q 544 4100 942 4425 
Q 1341 4750 2034 4750 
Q 2731 4750 3128 4425 
Q 3525 4100 3525 3541 
Q 3525 3141 3298 2862 
Q 3072 2584 2669 2484 
Q 3125 2378 3379 2068 
Q 3634 1759 3634 1313 
Q 3634 634 3220 271 
Q 2806 -91 2034 -91 
Q 1263 -91 848 271 
Q 434 634 434 1313 
Q 434 1759 690 2068 
Q 947 2378 1403 2484 
z
M 1172 3481 
Q 1172 3119 1398 2916 
Q 1625 2713 2034 2713 
Q 2441 2713 2670 2916 
Q 2900 3119 2900 3481 
Q 2900 3844 2670 4047 
Q 2441 4250 2034 4250 
Q 1625 4250 1398 4047 
Q 1172 3844 1172 3481 
z
" transform="scale(0.015625)"/>
       </defs>
       <use xlink:href="#DejaVuSans-38"/>
       <use xlink:href="#DejaVuSans-30" x="63.623047"/>
      </g>
     </g>
    </g>
    <g id="xtick_3">
     <g id="line2d_3">
      <g>
       <use xlink:href="#m7360720c65" x="161.080032" y="246.04" style="stroke: #000000; stroke-width: 0.8"/>
      </g>
     </g>
     <g id="text_3">
      <!-- 100 -->
      <g transform="translate(151.536282 260.638438)scale(0.1 -0.1)">
       <defs>
        <path id="DejaVuSans-31" d="M 794 531 
L 1825 531 
L 1825 4091 
L 703 3866 
L 703 4441 
L 1819 4666 
L 2450 4666 
L 2450 531 
L 3481 531 
L 3481 0 
L 794 0 
L 794 531 
z
" transform="scale(0.015625)"/>
       </defs>
       <use xlink:href="#DejaVuSans-31"/>
       <use xlink:href="#DejaVuSans-30" x="63.623047"/>
       <use xlink:href="#DejaVuSans-30" x="127.246094"/>
      </g>
     </g>
    </g>
    <g id="xtick_4">
     <g id="line2d_4">
      <g>
       <use xlink:href="#m7360720c65" x="202.922938" y="246.04" style="stroke: #000000; stroke-width: 0.8"/>
      </g>
     </g>
     <g id="text_4">
      <!-- 120 -->
      <g transform="translate(193.379188 260.638438)scale(0.1 -0.1)">
       <defs>
        <path id="DejaVuSans-32" d="M 1228 531 
L 3431 531 
L 3431 0 
L 469 0 
L 469 531 
Q 828 903 1448 1529 
Q 2069 2156 2228 2338 
Q 2531 2678 2651 2914 
Q 2772 3150 2772 3378 
Q 2772 3750 2511 3984 
Q 2250 4219 1831 4219 
Q 1534 4219 1204 4116 
Q 875 4013 500 3803 
L 500 4441 
Q 881 4594 1212 4672 
Q 1544 4750 1819 4750 
Q 2544 4750 2975 4387 
Q 3406 4025 3406 3419 
Q 3406 3131 3298 2873 
Q 3191 2616 2906 2266 
Q 2828 2175 2409 1742 
Q 1991 1309 1228 531 
z
" transform="scale(0.015625)"/>
       </defs>
       <use xlink:href="#DejaVuSans-31"/>
       <use xlink:href="#DejaVuSans-32" x="63.623047"/>
       <use xlink:href="#DejaVuSans-30" x="127.246094"/>
      </g>
     </g>
    </g>
    <g id="xtick_5">
     <g id="line2d_5">
      <g>
       <use xlink:href="#m7360720c65" x="244.765845" y="246.04" style="stroke: #000000; stroke-width: 0.8"/>
      </g>
     </g>
     <g id="text_5">
      <!-- 140 -->
      <g transform="translate(235.222095 260.638438)scale(0.1 -0.1)">
       <defs>
        <path id="DejaVuSans-34" d="M 2419 4116 
L 825 1625 
L 2419 1625 
L 2419 4116 
z
M 2253 4666 
L 3047 4666 
L 3047 1625 
L 3713 1625 
L 3713 1100 
L 3047 1100 
L 3047 0 
L 2419 0 
L 2419 1100 
L 313 1100 
L 313 1709 
L 2253 4666 
z
" transform="scale(0.015625)"/>
       </defs>
       <use xlink:href="#DejaVuSans-31"/>
       <use xlink:href="#DejaVuSans-34" x="63.623047"/>
       <use xlink:href="#DejaVuSans-30" x="127.246094"/>
      </g>
     </g>
    </g>
    <g id="xtick_6">
     <g id="line2d_6">
      <g>
       <use xlink:href="#m7360720c65" x="286.608752" y="246.04" style="stroke: #000000; stroke-width: 0.8"/>
      </g>
     </g>
     <g id="text_6">
      <!-- 160 -->
      <g transform="translate(277.065002 260.638438)scale(0.1 -0.1)">
       <use xlink:href="#DejaVuSans-31"/>
       <use xlink:href="#DejaVuSans-36" x="63.623047"/>
       <use xlink:href="#DejaVuSans-30" x="127.246094"/>
      </g>
     </g>
    </g>
    <g id="xtick_7">
     <g id="line2d_7">
      <g>
       <use xlink:href="#m7360720c65" x="328.451658" y="246.04" style="stroke: #000000; stroke-width: 0.8"/>
      </g>
     </g>
     <g id="text_7">
      <!-- 180 -->
      <g transform="translate(318.907908 260.638438)scale(0.1 -0.1)">
       <use xlink:href="#DejaVuSans-31"/>
       <use xlink:href="#DejaVuSans-38" x="63.623047"/>
       <use xlink:href="#DejaVuSans-30" x="127.246094"/>
      </g>
     </g>
    </g>
    <g id="text_8">
     <!-- Phantomless Calibration vBMD [mg/cc] -->
     <g transform="translate(103.006563 274.316562)scale(0.1 -0.1)">
      <defs>
       <path id="DejaVuSans-50" d="M 1259 4147 
L 1259 2394 
L 2053 2394 
Q 2494 2394 2734 2622 
Q 2975 2850 2975 3272 
Q 2975 3691 2734 3919 
Q 2494 4147 2053 4147 
L 1259 4147 
z
M 628 4666 
L 2053 4666 
Q 2838 4666 3239 4311 
Q 3641 3956 3641 3272 
Q 3641 2581 3239 2228 
Q 2838 1875 2053 1875 
L 1259 1875 
L 1259 0 
L 628 0 
L 628 4666 
z
" transform="scale(0.015625)"/>
       <path id="DejaVuSans-68" d="M 3513 2113 
L 3513 0 
L 2938 0 
L 2938 2094 
Q 2938 2591 2744 2837 
Q 2550 3084 2163 3084 
Q 1697 3084 1428 2787 
Q 1159 2491 1159 1978 
L 1159 0 
L 581 0 
L 581 4863 
L 1159 4863 
L 1159 2956 
Q 1366 3272 1645 3428 
Q 1925 3584 2291 3584 
Q 2894 3584 3203 3211 
Q 3513 2838 3513 2113 
z
" transform="scale(0.015625)"/>
       <path id="DejaVuSans-61" d="M 2194 1759 
Q 1497 1759 1228 1600 
Q 959 1441 959 1056 
Q 959 750 1161 570 
Q 1363 391 1709 391 
Q 2188 391 2477 730 
Q 2766 1069 2766 1631 
L 2766 1759 
L 2194 1759 
z
M 3341 1997 
L 3341 0 
L 2766 0 
L 2766 531 
Q 2569 213 2275 61 
Q 1981 -91 1556 -91 
Q 1019 -91 701 211 
Q 384 513 384 1019 
Q 384 1609 779 1909 
Q 1175 2209 1959 2209 
L 2766 2209 
L 2766 2266 
Q 2766 2663 2505 2880 
Q 2244 3097 1772 3097 
Q 1472 3097 1187 3025 
Q 903 2953 641 2809 
L 641 3341 
Q 956 3463 1253 3523 
Q 1550 3584 1831 3584 
Q 2591 3584 2966 3190 
Q 3341 2797 3341 1997 
z
" transform="scale(0.015625)"/>
       <path id="DejaVuSans-6e" d="M 3513 2113 
L 3513 0 
L 2938 0 
L 2938 2094 
Q 2938 2591 2744 2837 
Q 2550 3084 2163 3084 
Q 1697 3084 1428 2787 
Q 1159 2491 1159 1978 
L 1159 0 
L 581 0 
L 581 3500 
L 1159 3500 
L 1159 2956 
Q 1366 3272 1645 3428 
Q 1925 3584 2291 3584 
Q 2894 3584 3203 3211 
Q 3513 2838 3513 2113 
z
" transform="scale(0.015625)"/>
       <path id="DejaVuSans-74" d="M 1172 4494 
L 1172 3500 
L 2356 3500 
L 2356 3053 
L 1172 3053 
L 1172 1153 
Q 1172 725 1289 603 
Q 1406 481 1766 481 
L 2356 481 
L 2356 0 
L 1766 0 
Q 1100 0 847 248 
Q 594 497 594 1153 
L 594 3053 
L 172 3053 
L 172 3500 
L 594 3500 
L 594 4494 
L 1172 4494 
z
" transform="scale(0.015625)"/>
       <path id="DejaVuSans-6f" d="M 1959 3097 
Q 1497 3097 1228 2736 
Q 959 2375 959 1747 
Q 959 1119 1226 758 
Q 1494 397 1959 397 
Q 2419 397 2687 759 
Q 2956 1122 2956 1747 
Q 2956 2369 2687 2733 
Q 2419 3097 1959 3097 
z
M 1959 3584 
Q 2709 3584 3137 3096 
Q 3566 2609 3566 1747 
Q 3566 888 3137 398 
Q 2709 -91 1959 -91 
Q 1206 -91 779 398 
Q 353 888 353 1747 
Q 353 2609 779 3096 
Q 1206 3584 1959 3584 
z
" transform="scale(0.015625)"/>
       <path id="DejaVuSans-6d" d="M 3328 2828 
Q 3544 3216 3844 3400 
Q 4144 3584 4550 3584 
Q 5097 3584 5394 3201 
Q 5691 2819 5691 2113 
L 5691 0 
L 5113 0 
L 5113 2094 
Q 5113 2597 4934 2840 
Q 4756 3084 4391 3084 
Q 3944 3084 3684 2787 
Q 3425 2491 3425 1978 
L 3425 0 
L 2847 0 
L 2847 2094 
Q 2847 2600 2669 2842 
Q 2491 3084 2119 3084 
Q 1678 3084 1418 2786 
Q 1159 2488 1159 1978 
L 1159 0 
L 581 0 
L 581 3500 
L 1159 3500 
L 1159 2956 
Q 1356 3278 1631 3431 
Q 1906 3584 2284 3584 
Q 2666 3584 2933 3390 
Q 3200 3197 3328 2828 
z
" transform="scale(0.015625)"/>
       <path id="DejaVuSans-6c" d="M 603 4863 
L 1178 4863 
L 1178 0 
L 603 0 
L 603 4863 
z
" transform="scale(0.015625)"/>
       <path id="DejaVuSans-65" d="M 3597 1894 
L 3597 1613 
L 953 1613 
Q 991 1019 1311 708 
Q 1631 397 2203 397 
Q 2534 397 2845 478 
Q 3156 559 3463 722 
L 3463 178 
Q 3153 47 2828 -22 
Q 2503 -91 2169 -91 
Q 1331 -91 842 396 
Q 353 884 353 1716 
Q 353 2575 817 3079 
Q 1281 3584 2069 3584 
Q 2775 3584 3186 3129 
Q 3597 2675 3597 1894 
z
M 3022 2063 
Q 3016 2534 2758 2815 
Q 2500 3097 2075 3097 
Q 1594 3097 1305 2825 
Q 1016 2553 972 2059 
L 3022 2063 
z
" transform="scale(0.015625)"/>
       <path id="DejaVuSans-73" d="M 2834 3397 
L 2834 2853 
Q 2591 2978 2328 3040 
Q 2066 3103 1784 3103 
Q 1356 3103 1142 2972 
Q 928 2841 928 2578 
Q 928 2378 1081 2264 
Q 1234 2150 1697 2047 
L 1894 2003 
Q 2506 1872 2764 1633 
Q 3022 1394 3022 966 
Q 3022 478 2636 193 
Q 2250 -91 1575 -91 
Q 1294 -91 989 -36 
Q 684 19 347 128 
L 347 722 
Q 666 556 975 473 
Q 1284 391 1588 391 
Q 1994 391 2212 530 
Q 2431 669 2431 922 
Q 2431 1156 2273 1281 
Q 2116 1406 1581 1522 
L 1381 1569 
Q 847 1681 609 1914 
Q 372 2147 372 2553 
Q 372 3047 722 3315 
Q 1072 3584 1716 3584 
Q 2034 3584 2315 3537 
Q 2597 3491 2834 3397 
z
" transform="scale(0.015625)"/>
       <path id="DejaVuSans-20" transform="scale(0.015625)"/>
       <path id="DejaVuSans-43" d="M 4122 4306 
L 4122 3641 
Q 3803 3938 3442 4084 
Q 3081 4231 2675 4231 
Q 1875 4231 1450 3742 
Q 1025 3253 1025 2328 
Q 1025 1406 1450 917 
Q 1875 428 2675 428 
Q 3081 428 3442 575 
Q 3803 722 4122 1019 
L 4122 359 
Q 3791 134 3420 21 
Q 3050 -91 2638 -91 
Q 1578 -91 968 557 
Q 359 1206 359 2328 
Q 359 3453 968 4101 
Q 1578 4750 2638 4750 
Q 3056 4750 3426 4639 
Q 3797 4528 4122 4306 
z
" transform="scale(0.015625)"/>
       <path id="DejaVuSans-69" d="M 603 3500 
L 1178 3500 
L 1178 0 
L 603 0 
L 603 3500 
z
M 603 4863 
L 1178 4863 
L 1178 4134 
L 603 4134 
L 603 4863 
z
" transform="scale(0.015625)"/>
       <path id="DejaVuSans-62" d="M 3116 1747 
Q 3116 2381 2855 2742 
Q 2594 3103 2138 3103 
Q 1681 3103 1420 2742 
Q 1159 2381 1159 1747 
Q 1159 1113 1420 752 
Q 1681 391 2138 391 
Q 2594 391 2855 752 
Q 3116 1113 3116 1747 
z
M 1159 2969 
Q 1341 3281 1617 3432 
Q 1894 3584 2278 3584 
Q 2916 3584 3314 3078 
Q 3713 2572 3713 1747 
Q 3713 922 3314 415 
Q 2916 -91 2278 -91 
Q 1894 -91 1617 61 
Q 1341 213 1159 525 
L 1159 0 
L 581 0 
L 581 4863 
L 1159 4863 
L 1159 2969 
z
" transform="scale(0.015625)"/>
       <path id="DejaVuSans-72" d="M 2631 2963 
Q 2534 3019 2420 3045 
Q 2306 3072 2169 3072 
Q 1681 3072 1420 2755 
Q 1159 2438 1159 1844 
L 1159 0 
L 581 0 
L 581 3500 
L 1159 3500 
L 1159 2956 
Q 1341 3275 1631 3429 
Q 1922 3584 2338 3584 
Q 2397 3584 2469 3576 
Q 2541 3569 2628 3553 
L 2631 2963 
z
" transform="scale(0.015625)"/>
       <path id="DejaVuSans-76" d="M 191 3500 
L 800 3500 
L 1894 563 
L 2988 3500 
L 3597 3500 
L 2284 0 
L 1503 0 
L 191 3500 
z
" transform="scale(0.015625)"/>
       <path id="DejaVuSans-42" d="M 1259 2228 
L 1259 519 
L 2272 519 
Q 2781 519 3026 730 
Q 3272 941 3272 1375 
Q 3272 1813 3026 2020 
Q 2781 2228 2272 2228 
L 1259 2228 
z
M 1259 4147 
L 1259 2741 
L 2194 2741 
Q 2656 2741 2882 2914 
Q 3109 3088 3109 3444 
Q 3109 3797 2882 3972 
Q 2656 4147 2194 4147 
L 1259 4147 
z
M 628 4666 
L 2241 4666 
Q 2963 4666 3353 4366 
Q 3744 4066 3744 3513 
Q 3744 3084 3544 2831 
Q 3344 2578 2956 2516 
Q 3422 2416 3680 2098 
Q 3938 1781 3938 1306 
Q 3938 681 3513 340 
Q 3088 0 2303 0 
L 628 0 
L 628 4666 
z
" transform="scale(0.015625)"/>
       <path id="DejaVuSans-4d" d="M 628 4666 
L 1569 4666 
L 2759 1491 
L 3956 4666 
L 4897 4666 
L 4897 0 
L 4281 0 
L 4281 4097 
L 3078 897 
L 2444 897 
L 1241 4097 
L 1241 0 
L 628 0 
L 628 4666 
z
" transform="scale(0.015625)"/>
       <path id="DejaVuSans-44" d="M 1259 4147 
L 1259 519 
L 2022 519 
Q 2988 519 3436 956 
Q 3884 1394 3884 2338 
Q 3884 3275 3436 3711 
Q 2988 4147 2022 4147 
L 1259 4147 
z
M 628 4666 
L 1925 4666 
Q 3281 4666 3915 4102 
Q 4550 3538 4550 2338 
Q 4550 1131 3912 565 
Q 3275 0 1925 0 
L 628 0 
L 628 4666 
z
" transform="scale(0.015625)"/>
       <path id="DejaVuSans-5b" d="M 550 4863 
L 1875 4863 
L 1875 4416 
L 1125 4416 
L 1125 -397 
L 1875 -397 
L 1875 -844 
L 550 -844 
L 550 4863 
z
" transform="scale(0.015625)"/>
       <path id="DejaVuSans-67" d="M 2906 1791 
Q 2906 2416 2648 2759 
Q 2391 3103 1925 3103 
Q 1463 3103 1205 2759 
Q 947 2416 947 1791 
Q 947 1169 1205 825 
Q 1463 481 1925 481 
Q 2391 481 2648 825 
Q 2906 1169 2906 1791 
z
M 3481 434 
Q 3481 -459 3084 -895 
Q 2688 -1331 1869 -1331 
Q 1566 -1331 1297 -1286 
Q 1028 -1241 775 -1147 
L 775 -588 
Q 1028 -725 1275 -790 
Q 1522 -856 1778 -856 
Q 2344 -856 2625 -561 
Q 2906 -266 2906 331 
L 2906 616 
Q 2728 306 2450 153 
Q 2172 0 1784 0 
Q 1141 0 747 490 
Q 353 981 353 1791 
Q 353 2603 747 3093 
Q 1141 3584 1784 3584 
Q 2172 3584 2450 3431 
Q 2728 3278 2906 2969 
L 2906 3500 
L 3481 3500 
L 3481 434 
z
" transform="scale(0.015625)"/>
       <path id="DejaVuSans-2f" d="M 1625 4666 
L 2156 4666 
L 531 -594 
L 0 -594 
L 1625 4666 
z
" transform="scale(0.015625)"/>
       <path id="DejaVuSans-63" d="M 3122 3366 
L 3122 2828 
Q 2878 2963 2633 3030 
Q 2388 3097 2138 3097 
Q 1578 3097 1268 2742 
Q 959 2388 959 1747 
Q 959 1106 1268 751 
Q 1578 397 2138 397 
Q 2388 397 2633 464 
Q 2878 531 3122 666 
L 3122 134 
Q 2881 22 2623 -34 
Q 2366 -91 2075 -91 
Q 1284 -91 818 406 
Q 353 903 353 1747 
Q 353 2603 823 3093 
Q 1294 3584 2113 3584 
Q 2378 3584 2631 3529 
Q 2884 3475 3122 3366 
z
" transform="scale(0.015625)"/>
       <path id="DejaVuSans-5d" d="M 1947 4863 
L 1947 -844 
L 622 -844 
L 622 -397 
L 1369 -397 
L 1369 4416 
L 622 4416 
L 622 4863 
L 1947 4863 
z
" transform="scale(0.015625)"/>
      </defs>
      <use xlink:href="#DejaVuSans-50"/>
      <use xlink:href="#DejaVuSans-68" x="60.302734"/>
      <use xlink:href="#DejaVuSans-61" x="123.681641"/>
      <use xlink:href="#DejaVuSans-6e" x="184.960938"/>
      <use xlink:href="#DejaVuSans-74" x="248.339844"/>
      <use xlink:href="#DejaVuSans-6f" x="287.548828"/>
      <use xlink:href="#DejaVuSans-6d" x="348.730469"/>
      <use xlink:href="#DejaVuSans-6c" x="446.142578"/>
      <use xlink:href="#DejaVuSans-65" x="473.925781"/>
      <use xlink:href="#DejaVuSans-73" x="535.449219"/>
      <use xlink:href="#DejaVuSans-73" x="587.548828"/>
      <use xlink:href="#DejaVuSans-20" x="639.648438"/>
      <use xlink:href="#DejaVuSans-43" x="671.435547"/>
      <use xlink:href="#DejaVuSans-61" x="741.259766"/>
      <use xlink:href="#DejaVuSans-6c" x="802.539062"/>
      <use xlink:href="#DejaVuSans-69" x="830.322266"/>
      <use xlink:href="#DejaVuSans-62" x="858.105469"/>
      <use xlink:href="#DejaVuSans-72" x="921.582031"/>
      <use xlink:href="#DejaVuSans-61" x="962.695312"/>
      <use xlink:href="#DejaVuSans-74" x="1023.974609"/>
      <use xlink:href="#DejaVuSans-69" x="1063.183594"/>
      <use xlink:href="#DejaVuSans-6f" x="1090.966797"/>
      <use xlink:href="#DejaVuSans-6e" x="1152.148438"/>
      <use xlink:href="#DejaVuSans-20" x="1215.527344"/>
      <use xlink:href="#DejaVuSans-76" x="1247.314453"/>
      <use xlink:href="#DejaVuSans-42" x="1306.494141"/>
      <use xlink:href="#DejaVuSans-4d" x="1375.097656"/>
      <use xlink:href="#DejaVuSans-44" x="1461.376953"/>
      <use xlink:href="#DejaVuSans-20" x="1538.378906"/>
      <use xlink:href="#DejaVuSans-5b" x="1570.166016"/>
      <use xlink:href="#DejaVuSans-6d" x="1609.179688"/>
      <use xlink:href="#DejaVuSans-67" x="1706.591797"/>
      <use xlink:href="#DejaVuSans-2f" x="1770.068359"/>
      <use xlink:href="#DejaVuSans-63" x="1803.759766"/>
      <use xlink:href="#DejaVuSans-63" x="1858.740234"/>
      <use xlink:href="#DejaVuSans-5d" x="1913.720703"/>
     </g>
    </g>
   </g>
   <g id="matplotlib.axis_2">
    <g id="ytick_1">
     <g id="line2d_8">
      <defs>
       <path id="mf2547da5f9" d="M 0 0 
L -3.5 0 
" style="stroke: #000000; stroke-width: 0.8"/>
      </defs>
      <g>
       <use xlink:href="#mf2547da5f9" x="50.87" y="225.89358" style="stroke: #000000; stroke-width: 0.8"/>
      </g>
     </g>
     <g id="text_9">
      <!-- 50 -->
      <g transform="translate(31.145 229.692799)scale(0.1 -0.1)">
       <defs>
        <path id="DejaVuSans-35" d="M 691 4666 
L 3169 4666 
L 3169 4134 
L 1269 4134 
L 1269 2991 
Q 1406 3038 1543 3061 
Q 1681 3084 1819 3084 
Q 2600 3084 3056 2656 
Q 3513 2228 3513 1497 
Q 3513 744 3044 326 
Q 2575 -91 1722 -91 
Q 1428 -91 1123 -41 
Q 819 9 494 109 
L 494 744 
Q 775 591 1075 516 
Q 1375 441 1709 441 
Q 2250 441 2565 725 
Q 2881 1009 2881 1497 
Q 2881 1984 2565 2268 
Q 2250 2553 1709 2553 
Q 1456 2553 1204 2497 
Q 953 2441 691 2322 
L 691 4666 
z
" transform="scale(0.015625)"/>
       </defs>
       <use xlink:href="#DejaVuSans-35"/>
       <use xlink:href="#DejaVuSans-30" x="63.623047"/>
      </g>
     </g>
    </g>
    <g id="ytick_2">
     <g id="line2d_9">
      <g>
       <use xlink:href="#mf2547da5f9" x="50.87" y="168.369574" style="stroke: #000000; stroke-width: 0.8"/>
      </g>
     </g>
     <g id="text_10">
      <!-- 100 -->
      <g transform="translate(24.7825 172.168793)scale(0.1 -0.1)">
       <use xlink:href="#DejaVuSans-31"/>
       <use xlink:href="#DejaVuSans-30" x="63.623047"/>
       <use xlink:href="#DejaVuSans-30" x="127.246094"/>
      </g>
     </g>
    </g>
    <g id="ytick_3">
     <g id="line2d_10">
      <g>
       <use xlink:href="#mf2547da5f9" x="50.87" y="110.845568" style="stroke: #000000; stroke-width: 0.8"/>
      </g>
     </g>
     <g id="text_11">
      <!-- 150 -->
      <g transform="translate(24.7825 114.644787)scale(0.1 -0.1)">
       <use xlink:href="#DejaVuSans-31"/>
       <use xlink:href="#DejaVuSans-35" x="63.623047"/>
       <use xlink:href="#DejaVuSans-30" x="127.246094"/>
      </g>
     </g>
    </g>
    <g id="ytick_4">
     <g id="line2d_11">
      <g>
       <use xlink:href="#mf2547da5f9" x="50.87" y="53.321562" style="stroke: #000000; stroke-width: 0.8"/>
      </g>
     </g>
     <g id="text_12">
      <!-- 200 -->
      <g transform="translate(24.7825 57.12078)scale(0.1 -0.1)">
       <use xlink:href="#DejaVuSans-32"/>
       <use xlink:href="#DejaVuSans-30" x="63.623047"/>
       <use xlink:href="#DejaVuSans-30" x="127.246094"/>
      </g>
     </g>
    </g>
    <g id="text_13">
     <!-- Phantom Calibration vBMD [mg/cc] -->
     <g transform="translate(18.702813 227.468937)rotate(-90)scale(0.1 -0.1)">
      <use xlink:href="#DejaVuSans-50"/>
      <use xlink:href="#DejaVuSans-68" x="60.302734"/>
      <use xlink:href="#DejaVuSans-61" x="123.681641"/>
      <use xlink:href="#DejaVuSans-6e" x="184.960938"/>
      <use xlink:href="#DejaVuSans-74" x="248.339844"/>
      <use xlink:href="#DejaVuSans-6f" x="287.548828"/>
      <use xlink:href="#DejaVuSans-6d" x="348.730469"/>
      <use xlink:href="#DejaVuSans-20" x="446.142578"/>
      <use xlink:href="#DejaVuSans-43" x="477.929688"/>
      <use xlink:href="#DejaVuSans-61" x="547.753906"/>
      <use xlink:href="#DejaVuSans-6c" x="609.033203"/>
      <use xlink:href="#DejaVuSans-69" x="636.816406"/>
      <use xlink:href="#DejaVuSans-62" x="664.599609"/>
      <use xlink:href="#DejaVuSans-72" x="728.076172"/>
      <use xlink:href="#DejaVuSans-61" x="769.189453"/>
      <use xlink:href="#DejaVuSans-74" x="830.46875"/>
      <use xlink:href="#DejaVuSans-69" x="869.677734"/>
      <use xlink:href="#DejaVuSans-6f" x="897.460938"/>
      <use xlink:href="#DejaVuSans-6e" x="958.642578"/>
      <use xlink:href="#DejaVuSans-20" x="1022.021484"/>
      <use xlink:href="#DejaVuSans-76" x="1053.808594"/>
      <use xlink:href="#DejaVuSans-42" x="1112.988281"/>
      <use xlink:href="#DejaVuSans-4d" x="1181.591797"/>
      <use xlink:href="#DejaVuSans-44" x="1267.871094"/>
      <use xlink:href="#DejaVuSans-20" x="1344.873047"/>
      <use xlink:href="#DejaVuSans-5b" x="1376.660156"/>
      <use xlink:href="#DejaVuSans-6d" x="1415.673828"/>
      <use xlink:href="#DejaVuSans-67" x="1513.085938"/>
      <use xlink:href="#DejaVuSans-2f" x="1576.5625"/>
      <use xlink:href="#DejaVuSans-63" x="1610.253906"/>
      <use xlink:href="#DejaVuSans-63" x="1665.234375"/>
      <use xlink:href="#DejaVuSans-5d" x="1720.214844"/>
     </g>
    </g>
   </g>
   <g id="line2d_12">
    <path d="M 64.485682 220.698883 
L 67.236325 219.17084 
L 69.986967 217.642798 
L 72.73761 216.114756 
L 75.488253 214.586713 
L 78.238896 213.058671 
L 80.989539 211.530629 
L 83.740181 210.002586 
L 86.490824 208.474544 
L 89.241467 206.946501 
L 91.99211 205.418459 
L 94.742753 203.890417 
L 97.493395 202.362374 
L 100.244038 200.834332 
L 102.994681 199.30629 
L 105.745324 197.778247 
L 108.495966 196.250205 
L 111.246609 194.722163 
L 113.997252 193.19412 
L 116.747895 191.666078 
L 119.498538 190.138035 
L 122.24918 188.609993 
L 124.999823 187.081951 
L 127.750466 185.553908 
L 130.501109 184.025866 
L 133.251752 182.497824 
L 136.002394 180.969781 
L 138.753037 179.441739 
L 141.50368 177.913696 
L 144.254323 176.385654 
L 147.004966 174.857612 
L 149.755608 173.329569 
L 152.506251 171.801527 
L 155.256894 170.273485 
L 158.007537 168.745442 
L 160.75818 167.2174 
L 163.508822 165.689358 
L 166.259465 164.161315 
L 169.010108 162.633273 
L 171.760751 161.10523 
L 174.511393 159.577188 
L 177.262036 158.049146 
L 180.012679 156.521103 
L 182.763322 154.993061 
L 185.513965 153.465019 
L 188.264607 151.936976 
L 191.01525 150.408934 
L 193.765893 148.880892 
L 196.516536 147.352849 
L 199.267179 145.824807 
L 202.017821 144.296764 
L 204.768464 142.768722 
L 207.519107 141.24068 
L 210.26975 139.712637 
L 213.020393 138.184595 
L 215.771035 136.656553 
L 218.521678 135.12851 
L 221.272321 133.600468 
L 224.022964 132.072426 
L 226.773607 130.544383 
L 229.524249 129.016341 
L 232.274892 127.488298 
L 235.025535 125.960256 
L 237.776178 124.432214 
L 240.52682 122.904171 
L 243.277463 121.376129 
L 246.028106 119.848087 
L 248.778749 118.320044 
L 251.529392 116.792002 
L 254.280034 115.26396 
L 257.030677 113.735917 
L 259.78132 112.207875 
L 262.531963 110.679832 
L 265.282606 109.15179 
L 268.033248 107.623748 
L 270.783891 106.095705 
L 273.534534 104.567663 
L 276.285177 103.039621 
L 279.03582 101.511578 
L 281.786462 99.983536 
L 284.537105 98.455493 
L 287.287748 96.927451 
L 290.038391 95.399409 
L 292.789034 93.871366 
L 295.539676 92.343324 
L 298.290319 90.815282 
L 301.040962 89.287239 
L 303.791605 87.759197 
L 306.542247 86.231155 
L 309.29289 84.703112 
L 312.043533 83.17507 
L 314.794176 81.647027 
L 317.544819 80.118985 
L 320.295461 78.590943 
L 323.046104 77.0629 
L 325.796747 75.534858 
L 328.54739 74.006816 
L 331.298033 72.478773 
L 334.048675 70.950731 
L 336.799318 69.422689 
" clip-path="url(#pd69f6b95a7)" style="fill: none; stroke: #000000; stroke-width: 2.25; stroke-linecap: square"/>
   </g>
   <g id="patch_3">
    <path d="M 50.87 246.04 
L 50.87 32.976 
" style="fill: none; stroke: #000000; stroke-width: 0.8; stroke-linejoin: miter; stroke-linecap: square"/>
   </g>
   <g id="patch_4">
    <path d="M 350.415 246.04 
L 350.415 32.976 
" style="fill: none; stroke: #000000; stroke-width: 0.8; stroke-linejoin: miter; stroke-linecap: square"/>
   </g>
   <g id="patch_5">
    <path d="M 50.87 246.04 
L 350.415 246.04 
" style="fill: none; stroke: #000000; stroke-width: 0.8; stroke-linejoin: miter; stroke-linecap: square"/>
   </g>
   <g id="patch_6">
    <path d="M 50.87 32.976 
L 350.415 32.976 
" style="fill: none; stroke: #000000; stroke-width: 0.8; stroke-linejoin: miter; stroke-linecap: square"/>
   </g>
   <g id="text_14">
    <!-- 50 -->
    <g style="opacity: 0.7" transform="translate(201.82247 123.596798)scale(0.06 -0.06)">
     <use xlink:href="#DejaVuSans-35"/>
     <use xlink:href="#DejaVuSans-30" x="63.623047"/>
    </g>
   </g>
   <g id="text_15">
    <!-- 108 -->
    <g style="opacity: 0.7" transform="translate(162.661694 198.153662)scale(0.06 -0.06)">
     <use xlink:href="#DejaVuSans-31"/>
     <use xlink:href="#DejaVuSans-30" x="63.623047"/>
     <use xlink:href="#DejaVuSans-38" x="127.246094"/>
    </g>
   </g>
   <g id="text_16">
    <!-- 138 -->
    <g style="opacity: 0.7" transform="translate(298.402175 107.35662)scale(0.06 -0.06)">
     <defs>
      <path id="DejaVuSans-33" d="M 2597 2516 
Q 3050 2419 3304 2112 
Q 3559 1806 3559 1356 
Q 3559 666 3084 287 
Q 2609 -91 1734 -91 
Q 1441 -91 1130 -33 
Q 819 25 488 141 
L 488 750 
Q 750 597 1062 519 
Q 1375 441 1716 441 
Q 2309 441 2620 675 
Q 2931 909 2931 1356 
Q 2931 1769 2642 2001 
Q 2353 2234 1838 2234 
L 1294 2234 
L 1294 2753 
L 1863 2753 
Q 2328 2753 2575 2939 
Q 2822 3125 2822 3475 
Q 2822 3834 2567 4026 
Q 2313 4219 1838 4219 
Q 1578 4219 1281 4162 
Q 984 4106 628 3988 
L 628 4550 
Q 988 4650 1302 4700 
Q 1616 4750 1894 4750 
Q 2613 4750 3031 4423 
Q 3450 4097 3450 3541 
Q 3450 3153 3228 2886 
Q 3006 2619 2597 2516 
z
" transform="scale(0.015625)"/>
     </defs>
     <use xlink:href="#DejaVuSans-31"/>
     <use xlink:href="#DejaVuSans-33" x="63.623047"/>
     <use xlink:href="#DejaVuSans-38" x="127.246094"/>
    </g>
   </g>
   <g id="text_17">
    <!-- 154 -->
    <g style="opacity: 0.7" transform="translate(145.941268 202.849922)scale(0.06 -0.06)">
     <use xlink:href="#DejaVuSans-31"/>
     <use xlink:href="#DejaVuSans-35" x="63.623047"/>
     <use xlink:href="#DejaVuSans-34" x="127.246094"/>
    </g>
   </g>
   <g id="text_18">
    <!-- 51 -->
    <g style="opacity: 0.7" transform="translate(180.415639 123.485201)scale(0.06 -0.06)">
     <use xlink:href="#DejaVuSans-35"/>
     <use xlink:href="#DejaVuSans-31" x="63.623047"/>
    </g>
   </g>
   <g id="text_19">
    <!-- 68 -->
    <g style="opacity: 0.7" transform="translate(86.921848 208.029383)scale(0.06 -0.06)">
     <use xlink:href="#DejaVuSans-36"/>
     <use xlink:href="#DejaVuSans-38" x="63.623047"/>
    </g>
   </g>
   <g id="text_20">
    <!-- 75 -->
    <g style="opacity: 0.7" transform="translate(336.799318 72.207151)scale(0.06 -0.06)">
     <defs>
      <path id="DejaVuSans-37" d="M 525 4666 
L 3525 4666 
L 3525 4397 
L 1831 0 
L 1172 0 
L 2766 4134 
L 525 4134 
L 525 4666 
z
" transform="scale(0.015625)"/>
     </defs>
     <use xlink:href="#DejaVuSans-37"/>
     <use xlink:href="#DejaVuSans-35" x="63.623047"/>
    </g>
   </g>
   <g id="text_21">
    <!-- 82 -->
    <g style="opacity: 0.7" transform="translate(135.068389 181.339395)scale(0.06 -0.06)">
     <use xlink:href="#DejaVuSans-38"/>
     <use xlink:href="#DejaVuSans-32" x="63.623047"/>
    </g>
   </g>
   <g id="text_22">
    <!-- 91 -->
    <g style="opacity: 0.7" transform="translate(64.485682 207.363255)scale(0.06 -0.06)">
     <defs>
      <path id="DejaVuSans-39" d="M 703 97 
L 703 672 
Q 941 559 1184 500 
Q 1428 441 1663 441 
Q 2288 441 2617 861 
Q 2947 1281 2994 2138 
Q 2813 1869 2534 1725 
Q 2256 1581 1919 1581 
Q 1219 1581 811 2004 
Q 403 2428 403 3163 
Q 403 3881 828 4315 
Q 1253 4750 1959 4750 
Q 2769 4750 3195 4129 
Q 3622 3509 3622 2328 
Q 3622 1225 3098 567 
Q 2575 -91 1691 -91 
Q 1453 -91 1209 -44 
Q 966 3 703 97 
z
M 1959 2075 
Q 2384 2075 2632 2365 
Q 2881 2656 2881 3163 
Q 2881 3666 2632 3958 
Q 2384 4250 1959 4250 
Q 1534 4250 1286 3958 
Q 1038 3666 1038 3163 
Q 1038 2656 1286 2365 
Q 1534 2075 1959 2075 
z
" transform="scale(0.015625)"/>
     </defs>
     <use xlink:href="#DejaVuSans-39"/>
     <use xlink:href="#DejaVuSans-31" x="63.623047"/>
    </g>
   </g>
   <g id="text_23">
    <!-- 96 -->
    <g style="opacity: 0.7" transform="translate(234.918117 95.220205)scale(0.06 -0.06)">
     <use xlink:href="#DejaVuSans-39"/>
     <use xlink:href="#DejaVuSans-36" x="63.623047"/>
    </g>
   </g>
   <g id="text_24">
    <!-- 133 -->
    <g style="opacity: 0.7" transform="translate(84.423827 217.466772)scale(0.06 -0.06)">
     <use xlink:href="#DejaVuSans-31"/>
     <use xlink:href="#DejaVuSans-33" x="63.623047"/>
     <use xlink:href="#DejaVuSans-33" x="127.246094"/>
    </g>
   </g>
   <g id="text_25">
    <!-- 135 -->
    <g style="opacity: 0.7" transform="translate(99.872228 196.834061)scale(0.06 -0.06)">
     <use xlink:href="#DejaVuSans-31"/>
     <use xlink:href="#DejaVuSans-33" x="63.623047"/>
     <use xlink:href="#DejaVuSans-35" x="127.246094"/>
    </g>
   </g>
   <g id="text_26">
    <!-- 145 -->
    <g style="opacity: 0.7" transform="translate(161.544488 150.569804)scale(0.06 -0.06)">
     <use xlink:href="#DejaVuSans-31"/>
     <use xlink:href="#DejaVuSans-34" x="63.623047"/>
     <use xlink:href="#DejaVuSans-35" x="127.246094"/>
    </g>
   </g>
   <g id="text_27">
    <!-- 151 -->
    <g style="opacity: 0.7" transform="translate(85.875776 187.910938)scale(0.06 -0.06)">
     <use xlink:href="#DejaVuSans-31"/>
     <use xlink:href="#DejaVuSans-35" x="63.623047"/>
     <use xlink:href="#DejaVuSans-31" x="127.246094"/>
    </g>
   </g>
   <g id="text_28">
    <!-- 272 -->
    <g style="opacity: 0.7" transform="translate(258.251814 113.63364)scale(0.06 -0.06)">
     <use xlink:href="#DejaVuSans-32"/>
     <use xlink:href="#DejaVuSans-37" x="63.623047"/>
     <use xlink:href="#DejaVuSans-32" x="127.246094"/>
    </g>
   </g>
   <g id="text_29">
    <!-- 41 -->
    <g style="opacity: 0.7" transform="translate(220.473946 129.350349)scale(0.06 -0.06)">
     <use xlink:href="#DejaVuSans-34"/>
     <use xlink:href="#DejaVuSans-31" x="63.623047"/>
    </g>
   </g>
   <g id="text_30">
    <!-- 125 -->
    <g style="opacity: 0.7" transform="translate(129.170631 220.476428)scale(0.06 -0.06)">
     <use xlink:href="#DejaVuSans-31"/>
     <use xlink:href="#DejaVuSans-32" x="63.623047"/>
     <use xlink:href="#DejaVuSans-35" x="127.246094"/>
    </g>
   </g>
   <g id="text_31">
    <!-- $R = 0.91,\ y = 1.01x + 0.14$ -->
    <g transform="translate(53.86545 43.442577)scale(0.11 -0.11)">
     <defs>
      <path id="DejaVuSans-Oblique-52" d="M 1613 4147 
L 1294 2491 
L 2106 2491 
Q 2584 2491 2879 2755 
Q 3175 3019 3175 3444 
Q 3175 3784 2976 3965 
Q 2778 4147 2406 4147 
L 1613 4147 
z
M 2772 2241 
Q 2972 2194 3105 2009 
Q 3238 1825 3413 1275 
L 3809 0 
L 3144 0 
L 2778 1197 
Q 2638 1659 2453 1815 
Q 2269 1972 1888 1972 
L 1191 1972 
L 806 0 
L 172 0 
L 1081 4666 
L 2503 4666 
Q 3150 4666 3495 4373 
Q 3841 4081 3841 3531 
Q 3841 3044 3547 2687 
Q 3253 2331 2772 2241 
z
" transform="scale(0.015625)"/>
      <path id="DejaVuSans-3d" d="M 678 2906 
L 4684 2906 
L 4684 2381 
L 678 2381 
L 678 2906 
z
M 678 1631 
L 4684 1631 
L 4684 1100 
L 678 1100 
L 678 1631 
z
" transform="scale(0.015625)"/>
      <path id="DejaVuSans-2e" d="M 684 794 
L 1344 794 
L 1344 0 
L 684 0 
L 684 794 
z
" transform="scale(0.015625)"/>
      <path id="DejaVuSans-2c" d="M 750 794 
L 1409 794 
L 1409 256 
L 897 -744 
L 494 -744 
L 750 256 
L 750 794 
z
" transform="scale(0.015625)"/>
      <path id="DejaVuSans-Oblique-79" d="M 1588 -325 
Q 1188 -997 936 -1164 
Q 684 -1331 294 -1331 
L -159 -1331 
L -63 -850 
L 269 -850 
Q 509 -850 678 -719 
Q 847 -588 1056 -206 
L 1234 128 
L 459 3500 
L 1069 3500 
L 1650 819 
L 3256 3500 
L 3859 3500 
L 1588 -325 
z
" transform="scale(0.015625)"/>
      <path id="DejaVuSans-Oblique-78" d="M 3841 3500 
L 2234 1784 
L 3219 0 
L 2559 0 
L 1819 1388 
L 531 0 
L -166 0 
L 1556 1844 
L 641 3500 
L 1300 3500 
L 1972 2234 
L 3144 3500 
L 3841 3500 
z
" transform="scale(0.015625)"/>
      <path id="DejaVuSans-2b" d="M 2944 4013 
L 2944 2272 
L 4684 2272 
L 4684 1741 
L 2944 1741 
L 2944 0 
L 2419 0 
L 2419 1741 
L 678 1741 
L 678 2272 
L 2419 2272 
L 2419 4013 
L 2944 4013 
z
" transform="scale(0.015625)"/>
     </defs>
     <use xlink:href="#DejaVuSans-Oblique-52" transform="translate(0 0.78125)"/>
     <use xlink:href="#DejaVuSans-3d" transform="translate(88.964844 0.78125)"/>
     <use xlink:href="#DejaVuSans-30" transform="translate(192.236328 0.78125)"/>
     <use xlink:href="#DejaVuSans-2e" transform="translate(255.859375 0.78125)"/>
     <use xlink:href="#DejaVuSans-39" transform="translate(287.646484 0.78125)"/>
     <use xlink:href="#DejaVuSans-31" transform="translate(351.269531 0.78125)"/>
     <use xlink:href="#DejaVuSans-2c" transform="translate(414.892578 0.78125)"/>
     <use xlink:href="#DejaVuSans-Oblique-79" transform="translate(498.632488 0.78125)"/>
     <use xlink:href="#DejaVuSans-3d" transform="translate(577.294597 0.78125)"/>
     <use xlink:href="#DejaVuSans-31" transform="translate(680.566082 0.78125)"/>
     <use xlink:href="#DejaVuSans-2e" transform="translate(744.189128 0.78125)"/>
     <use xlink:href="#DejaVuSans-30" transform="translate(775.976238 0.78125)"/>
     <use xlink:href="#DejaVuSans-31" transform="translate(839.599285 0.78125)"/>
     <use xlink:href="#DejaVuSans-Oblique-78" transform="translate(903.222332 0.78125)"/>
     <use xlink:href="#DejaVuSans-2b" transform="translate(981.884441 0.78125)"/>
     <use xlink:href="#DejaVuSans-30" transform="translate(1085.155925 0.78125)"/>
     <use xlink:href="#DejaVuSans-2e" transform="translate(1148.778972 0.78125)"/>
     <use xlink:href="#DejaVuSans-31" transform="translate(1180.566082 0.78125)"/>
     <use xlink:href="#DejaVuSans-34" transform="translate(1244.189128 0.78125)"/>
    </g>
   </g>
   <g id="text_32">
    <!-- A -->
    <g transform="translate(20.9155 22.307412)scale(0.14 -0.14)">
     <defs>
      <path id="DejaVuSans-Bold-41" d="M 3419 850 
L 1538 850 
L 1241 0 
L 31 0 
L 1759 4666 
L 3194 4666 
L 4922 0 
L 3713 0 
L 3419 850 
z
M 1838 1716 
L 3116 1716 
L 2478 3572 
L 1838 1716 
z
" transform="scale(0.015625)"/>
     </defs>
     <use xlink:href="#DejaVuSans-Bold-41"/>
    </g>
   </g>
   <g id="text_33">
    <!-- Synchronous Calibration Phantom -->
    <g transform="translate(98.746563 26.976)scale(0.12 -0.12)">
     <defs>
      <path id="DejaVuSans-53" d="M 3425 4513 
L 3425 3897 
Q 3066 4069 2747 4153 
Q 2428 4238 2131 4238 
Q 1616 4238 1336 4038 
Q 1056 3838 1056 3469 
Q 1056 3159 1242 3001 
Q 1428 2844 1947 2747 
L 2328 2669 
Q 3034 2534 3370 2195 
Q 3706 1856 3706 1288 
Q 3706 609 3251 259 
Q 2797 -91 1919 -91 
Q 1588 -91 1214 -16 
Q 841 59 441 206 
L 441 856 
Q 825 641 1194 531 
Q 1563 422 1919 422 
Q 2459 422 2753 634 
Q 3047 847 3047 1241 
Q 3047 1584 2836 1778 
Q 2625 1972 2144 2069 
L 1759 2144 
Q 1053 2284 737 2584 
Q 422 2884 422 3419 
Q 422 4038 858 4394 
Q 1294 4750 2059 4750 
Q 2388 4750 2728 4690 
Q 3069 4631 3425 4513 
z
" transform="scale(0.015625)"/>
      <path id="DejaVuSans-79" d="M 2059 -325 
Q 1816 -950 1584 -1140 
Q 1353 -1331 966 -1331 
L 506 -1331 
L 506 -850 
L 844 -850 
Q 1081 -850 1212 -737 
Q 1344 -625 1503 -206 
L 1606 56 
L 191 3500 
L 800 3500 
L 1894 763 
L 2988 3500 
L 3597 3500 
L 2059 -325 
z
" transform="scale(0.015625)"/>
      <path id="DejaVuSans-75" d="M 544 1381 
L 544 3500 
L 1119 3500 
L 1119 1403 
Q 1119 906 1312 657 
Q 1506 409 1894 409 
Q 2359 409 2629 706 
Q 2900 1003 2900 1516 
L 2900 3500 
L 3475 3500 
L 3475 0 
L 2900 0 
L 2900 538 
Q 2691 219 2414 64 
Q 2138 -91 1772 -91 
Q 1169 -91 856 284 
Q 544 659 544 1381 
z
M 1991 3584 
L 1991 3584 
z
" transform="scale(0.015625)"/>
     </defs>
     <use xlink:href="#DejaVuSans-53"/>
     <use xlink:href="#DejaVuSans-79" x="63.476562"/>
     <use xlink:href="#DejaVuSans-6e" x="122.65625"/>
     <use xlink:href="#DejaVuSans-63" x="186.035156"/>
     <use xlink:href="#DejaVuSans-68" x="241.015625"/>
     <use xlink:href="#DejaVuSans-72" x="304.394531"/>
     <use xlink:href="#DejaVuSans-6f" x="343.257812"/>
     <use xlink:href="#DejaVuSans-6e" x="404.439453"/>
     <use xlink:href="#DejaVuSans-6f" x="467.818359"/>
     <use xlink:href="#DejaVuSans-75" x="529"/>
     <use xlink:href="#DejaVuSans-73" x="592.378906"/>
     <use xlink:href="#DejaVuSans-20" x="644.478516"/>
     <use xlink:href="#DejaVuSans-43" x="676.265625"/>
     <use xlink:href="#DejaVuSans-61" x="746.089844"/>
     <use xlink:href="#DejaVuSans-6c" x="807.369141"/>
     <use xlink:href="#DejaVuSans-69" x="835.152344"/>
     <use xlink:href="#DejaVuSans-62" x="862.935547"/>
     <use xlink:href="#DejaVuSans-72" x="926.412109"/>
     <use xlink:href="#DejaVuSans-61" x="967.525391"/>
     <use xlink:href="#DejaVuSans-74" x="1028.804688"/>
     <use xlink:href="#DejaVuSans-69" x="1068.013672"/>
     <use xlink:href="#DejaVuSans-6f" x="1095.796875"/>
     <use xlink:href="#DejaVuSans-6e" x="1156.978516"/>
     <use xlink:href="#DejaVuSans-20" x="1220.357422"/>
     <use xlink:href="#DejaVuSans-50" x="1252.144531"/>
     <use xlink:href="#DejaVuSans-68" x="1312.447266"/>
     <use xlink:href="#DejaVuSans-61" x="1375.826172"/>
     <use xlink:href="#DejaVuSans-6e" x="1437.105469"/>
     <use xlink:href="#DejaVuSans-74" x="1500.484375"/>
     <use xlink:href="#DejaVuSans-6f" x="1539.693359"/>
     <use xlink:href="#DejaVuSans-6d" x="1600.875"/>
    </g>
   </g>
   <g id="legend_1">
    <g id="patch_7">
     <path d="M 227.08 242.04 
L 344.815 242.04 
Q 346.415 242.04 346.415 240.44 
L 346.415 159.0425 
Q 346.415 157.4425 344.815 157.4425 
L 227.08 157.4425 
Q 225.48 157.4425 225.48 159.0425 
L 225.48 240.44 
Q 225.48 242.04 227.08 242.04 
z
" style="fill: #ffffff; opacity: 0.8; stroke: #cccccc; stroke-linejoin: miter"/>
    </g>
    <g id="text_34">
     <!-- Contrast Enhancement -->
     <g transform="translate(251.08 166.72125)scale(0.08 -0.08)">
      <defs>
       <path id="DejaVuSans-45" d="M 628 4666 
L 3578 4666 
L 3578 4134 
L 1259 4134 
L 1259 2753 
L 3481 2753 
L 3481 2222 
L 1259 2222 
L 1259 531 
L 3634 531 
L 3634 0 
L 628 0 
L 628 4666 
z
" transform="scale(0.015625)"/>
      </defs>
      <use xlink:href="#DejaVuSans-43"/>
      <use xlink:href="#DejaVuSans-6f" x="69.824219"/>
      <use xlink:href="#DejaVuSans-6e" x="131.005859"/>
      <use xlink:href="#DejaVuSans-74" x="194.384766"/>
      <use xlink:href="#DejaVuSans-72" x="233.59375"/>
      <use xlink:href="#DejaVuSans-61" x="274.707031"/>
      <use xlink:href="#DejaVuSans-73" x="335.986328"/>
      <use xlink:href="#DejaVuSans-74" x="388.085938"/>
      <use xlink:href="#DejaVuSans-20" x="427.294922"/>
      <use xlink:href="#DejaVuSans-45" x="459.082031"/>
      <use xlink:href="#DejaVuSans-6e" x="522.265625"/>
      <use xlink:href="#DejaVuSans-68" x="585.644531"/>
      <use xlink:href="#DejaVuSans-61" x="649.023438"/>
      <use xlink:href="#DejaVuSans-6e" x="710.302734"/>
      <use xlink:href="#DejaVuSans-63" x="773.681641"/>
      <use xlink:href="#DejaVuSans-65" x="828.662109"/>
      <use xlink:href="#DejaVuSans-6d" x="890.185547"/>
      <use xlink:href="#DejaVuSans-65" x="987.597656"/>
      <use xlink:href="#DejaVuSans-6e" x="1049.121094"/>
      <use xlink:href="#DejaVuSans-74" x="1112.5"/>
     </g>
    </g>
    <g id="PathCollection_7">
     <defs>
      <path id="mb8f45f7326" d="M 0 3 
C 0.795609 3 1.55874 2.683901 2.12132 2.12132 
C 2.683901 1.55874 3 0.795609 3 0 
C 3 -0.795609 2.683901 -1.55874 2.12132 -2.12132 
C 1.55874 -2.683901 0.795609 -3 0 -3 
C -0.795609 -3 -1.55874 -2.683901 -2.12132 -2.12132 
C -2.683901 -1.55874 -3 -0.795609 -3 0 
C -3 0.795609 -2.683901 1.55874 -2.12132 2.12132 
C -1.55874 2.683901 -0.795609 3 0 3 
z
" style="stroke: #4169e1"/>
     </defs>
     <g>
      <use xlink:href="#mb8f45f7326" x="236.68" y="176.36375" style="fill: #4169e1; stroke: #4169e1"/>
     </g>
    </g>
    <g id="text_35">
     <!-- ce-pv -->
     <g transform="translate(251.08 178.46375)scale(0.08 -0.08)">
      <defs>
       <path id="DejaVuSans-2d" d="M 313 2009 
L 1997 2009 
L 1997 1497 
L 313 1497 
L 313 2009 
z
" transform="scale(0.015625)"/>
       <path id="DejaVuSans-70" d="M 1159 525 
L 1159 -1331 
L 581 -1331 
L 581 3500 
L 1159 3500 
L 1159 2969 
Q 1341 3281 1617 3432 
Q 1894 3584 2278 3584 
Q 2916 3584 3314 3078 
Q 3713 2572 3713 1747 
Q 3713 922 3314 415 
Q 2916 -91 2278 -91 
Q 1894 -91 1617 61 
Q 1341 213 1159 525 
z
M 3116 1747 
Q 3116 2381 2855 2742 
Q 2594 3103 2138 3103 
Q 1681 3103 1420 2742 
Q 1159 2381 1159 1747 
Q 1159 1113 1420 752 
Q 1681 391 2138 391 
Q 2594 391 2855 752 
Q 3116 1113 3116 1747 
z
" transform="scale(0.015625)"/>
      </defs>
      <use xlink:href="#DejaVuSans-63"/>
      <use xlink:href="#DejaVuSans-65" x="54.980469"/>
      <use xlink:href="#DejaVuSans-2d" x="116.503906"/>
      <use xlink:href="#DejaVuSans-70" x="152.587891"/>
      <use xlink:href="#DejaVuSans-76" x="216.064453"/>
     </g>
    </g>
    <g id="PathCollection_8">
     <defs>
      <path id="mfcf300045f" d="M 0 3 
C 0.795609 3 1.55874 2.683901 2.12132 2.12132 
C 2.683901 1.55874 3 0.795609 3 0 
C 3 -0.795609 2.683901 -1.55874 2.12132 -2.12132 
C 1.55874 -2.683901 0.795609 -3 0 -3 
C -0.795609 -3 -1.55874 -2.683901 -2.12132 -2.12132 
C -2.683901 -1.55874 -3 -0.795609 -3 0 
C -3 0.795609 -2.683901 1.55874 -2.12132 2.12132 
C -1.55874 2.683901 -0.795609 3 0 3 
z
" style="stroke: #000000"/>
     </defs>
     <g>
      <use xlink:href="#mfcf300045f" x="236.68" y="188.10625" style="stroke: #000000"/>
     </g>
    </g>
    <g id="text_36">
     <!-- ce-no -->
     <g transform="translate(251.08 190.20625)scale(0.08 -0.08)">
      <use xlink:href="#DejaVuSans-63"/>
      <use xlink:href="#DejaVuSans-65" x="54.980469"/>
      <use xlink:href="#DejaVuSans-2d" x="116.503906"/>
      <use xlink:href="#DejaVuSans-6e" x="152.587891"/>
      <use xlink:href="#DejaVuSans-6f" x="215.966797"/>
     </g>
    </g>
    <g id="PathCollection_9">
     <defs>
      <path id="m46b39811a1" d="M 0 3 
C 0.795609 3 1.55874 2.683901 2.12132 2.12132 
C 2.683901 1.55874 3 0.795609 3 0 
C 3 -0.795609 2.683901 -1.55874 2.12132 -2.12132 
C 1.55874 -2.683901 0.795609 -3 0 -3 
C -0.795609 -3 -1.55874 -2.683901 -2.12132 -2.12132 
C -2.683901 -1.55874 -3 -0.795609 -3 0 
C -3 0.795609 -2.683901 1.55874 -2.12132 2.12132 
C -1.55874 2.683901 -0.795609 3 0 3 
z
" style="stroke: #b22222"/>
     </defs>
     <g>
      <use xlink:href="#m46b39811a1" x="236.68" y="199.84875" style="fill: #b22222; stroke: #b22222"/>
     </g>
    </g>
    <g id="text_37">
     <!-- ce-art -->
     <g transform="translate(251.08 201.94875)scale(0.08 -0.08)">
      <use xlink:href="#DejaVuSans-63"/>
      <use xlink:href="#DejaVuSans-65" x="54.980469"/>
      <use xlink:href="#DejaVuSans-2d" x="116.503906"/>
      <use xlink:href="#DejaVuSans-61" x="152.587891"/>
      <use xlink:href="#DejaVuSans-72" x="213.867188"/>
      <use xlink:href="#DejaVuSans-74" x="254.980469"/>
     </g>
    </g>
    <g id="text_38">
     <!-- Sex -->
     <g transform="translate(251.08 213.69125)scale(0.08 -0.08)">
      <defs>
       <path id="DejaVuSans-78" d="M 3513 3500 
L 2247 1797 
L 3578 0 
L 2900 0 
L 1881 1375 
L 863 0 
L 184 0 
L 1544 1831 
L 300 3500 
L 978 3500 
L 1906 2253 
L 2834 3500 
L 3513 3500 
z
" transform="scale(0.015625)"/>
      </defs>
      <use xlink:href="#DejaVuSans-53"/>
      <use xlink:href="#DejaVuSans-65" x="63.476562"/>
      <use xlink:href="#DejaVuSans-78" x="123.25"/>
     </g>
    </g>
    <g id="PathCollection_10">
     <defs>
      <path id="ma436ebf5e9" d="M 0 3 
C 0.795609 3 1.55874 2.683901 2.12132 2.12132 
C 2.683901 1.55874 3 0.795609 3 0 
C 3 -0.795609 2.683901 -1.55874 2.12132 -2.12132 
C 1.55874 -2.683901 0.795609 -3 0 -3 
C -0.795609 -3 -1.55874 -2.683901 -2.12132 -2.12132 
C -2.683901 -1.55874 -3 -0.795609 -3 0 
C -3 0.795609 -2.683901 1.55874 -2.12132 2.12132 
C -1.55874 2.683901 -0.795609 3 0 3 
z
" style="stroke: #333333"/>
     </defs>
     <g>
      <use xlink:href="#ma436ebf5e9" x="236.68" y="223.33375" style="fill: #333333; stroke: #333333"/>
     </g>
    </g>
    <g id="text_39">
     <!-- M -->
     <g transform="translate(251.08 225.43375)scale(0.08 -0.08)">
      <use xlink:href="#DejaVuSans-4d"/>
     </g>
    </g>
    <g id="PathCollection_11">
     <defs>
      <path id="me67a85c4fd" d="M -1.5 3 
L 0 1.5 
L 1.5 3 
L 3 1.5 
L 1.5 0 
L 3 -1.5 
L 1.5 -3 
L 0 -1.5 
L -1.5 -3 
L -3 -1.5 
L -1.5 0 
L -3 1.5 
z
" style="stroke: #333333"/>
     </defs>
     <g>
      <use xlink:href="#me67a85c4fd" x="236.68" y="235.07625" style="fill: #333333; stroke: #333333"/>
     </g>
    </g>
    <g id="text_40">
     <!-- F -->
     <g transform="translate(251.08 237.17625)scale(0.08 -0.08)">
      <defs>
       <path id="DejaVuSans-46" d="M 628 4666 
L 3309 4666 
L 3309 4134 
L 1259 4134 
L 1259 2759 
L 3109 2759 
L 3109 2228 
L 1259 2228 
L 1259 0 
L 628 0 
L 628 4666 
z
" transform="scale(0.015625)"/>
      </defs>
      <use xlink:href="#DejaVuSans-46"/>
     </g>
    </g>
   </g>
  </g>
  <g id="axes_2">
   <g id="patch_8">
    <path d="M 409.655 246.04 
L 709.2 246.04 
L 709.2 32.976 
L 409.655 32.976 
z
" style="fill: #ffffff"/>
   </g>
   <g id="PathCollection_12">
    <path d="M 575.52079 131.332489 
C 576.316399 131.332489 577.079529 131.01639 577.64211 130.453809 
C 578.204691 129.891228 578.52079 129.128098 578.52079 128.332489 
C 578.52079 127.53688 578.204691 126.773749 577.64211 126.211168 
C 577.079529 125.648588 576.316399 125.332489 575.52079 125.332489 
C 574.72518 125.332489 573.96205 125.648588 573.399469 126.211168 
C 572.836889 126.773749 572.52079 127.53688 572.52079 128.332489 
C 572.52079 129.128098 572.836889 129.891228 573.399469 130.453809 
C 573.96205 131.01639 574.72518 131.332489 575.52079 131.332489 
z
" clip-path="url(#pe7140c50ae)" style="fill: #4169e1; stroke: #ffffff; stroke-width: 0.48"/>
    <path d="M 482.175225 159.388148 
L 483.675225 157.888148 
L 485.175225 159.388148 
L 486.675225 157.888148 
L 485.175225 156.388148 
L 486.675225 154.888148 
L 485.175225 153.388148 
L 483.675225 154.888148 
L 482.175225 153.388148 
L 480.675225 154.888148 
L 482.175225 156.388148 
L 480.675225 157.888148 
z
" clip-path="url(#pe7140c50ae)" style="stroke: #ffffff; stroke-width: 0.48"/>
    <path d="M 641.806229 150.841237 
C 642.601839 150.841237 643.364969 150.525138 643.92755 149.962558 
C 644.49013 149.399977 644.806229 148.636847 644.806229 147.841237 
C 644.806229 147.045628 644.49013 146.282498 643.92755 145.719917 
C 643.364969 145.157336 642.601839 144.841237 641.806229 144.841237 
C 641.01062 144.841237 640.24749 145.157336 639.684909 145.719917 
C 639.122328 146.282498 638.806229 147.045628 638.806229 147.841237 
C 638.806229 148.636847 639.122328 149.399977 639.684909 149.962558 
C 640.24749 150.525138 641.01062 150.841237 641.806229 150.841237 
z
" clip-path="url(#pe7140c50ae)" style="stroke: #ffffff; stroke-width: 0.48"/>
    <path d="M 470.398124 157.007918 
C 471.193733 157.007918 471.956864 156.691819 472.519444 156.129239 
C 473.082025 155.566658 473.398124 154.803528 473.398124 154.007918 
C 473.398124 153.212309 473.082025 152.449179 472.519444 151.886598 
C 471.956864 151.324017 471.193733 151.007918 470.398124 151.007918 
C 469.602515 151.007918 468.839384 151.324017 468.276804 151.886598 
C 467.714223 152.449179 467.398124 153.212309 467.398124 154.007918 
C 467.398124 154.803528 467.714223 155.566658 468.276804 156.129239 
C 468.839384 156.691819 469.602515 157.007918 470.398124 157.007918 
z
" clip-path="url(#pe7140c50ae)" style="stroke: #ffffff; stroke-width: 0.48"/>
    <path d="M 562.875898 125.044666 
L 564.375898 123.544666 
L 565.875898 125.044666 
L 567.375898 123.544666 
L 565.875898 122.044666 
L 567.375898 120.544666 
L 565.875898 119.044666 
L 564.375898 120.544666 
L 562.875898 119.044666 
L 561.375898 120.544666 
L 562.875898 122.044666 
L 561.375898 123.544666 
z
" clip-path="url(#pe7140c50ae)" style="fill: #4169e1; stroke: #ffffff; stroke-width: 0.48"/>
    <path d="M 432.92657 142.575572 
L 434.42657 141.075572 
L 435.92657 142.575572 
L 437.42657 141.075572 
L 435.92657 139.575572 
L 437.42657 138.075572 
L 435.92657 136.575572 
L 434.42657 138.075572 
L 432.92657 136.575572 
L 431.42657 138.075572 
L 432.92657 139.575572 
L 431.42657 141.075572 
z
" clip-path="url(#pe7140c50ae)" style="fill: #4169e1; stroke: #ffffff; stroke-width: 0.48"/>
    <path d="M 694.084318 143.415044 
L 695.584318 141.915044 
L 697.084318 143.415044 
L 698.584318 141.915044 
L 697.084318 140.415044 
L 698.584318 138.915044 
L 697.084318 137.415044 
L 695.584318 138.915044 
L 694.084318 137.415044 
L 692.584318 138.915044 
L 694.084318 140.415044 
L 692.584318 141.915044 
z
" clip-path="url(#pe7140c50ae)" style="fill: #4169e1; stroke: #ffffff; stroke-width: 0.48"/>
    <path d="M 485.243318 142.462343 
C 486.038927 142.462343 486.802057 142.146245 487.364638 141.583664 
C 487.927219 141.021083 488.243318 140.257953 488.243318 139.462343 
C 488.243318 138.666734 487.927219 137.903604 487.364638 137.341023 
C 486.802057 136.778442 486.038927 136.462343 485.243318 136.462343 
C 484.447708 136.462343 483.684578 136.778442 483.121997 137.341023 
C 482.559417 137.903604 482.243318 138.666734 482.243318 139.462343 
C 482.243318 140.257953 482.559417 141.021083 483.121997 141.583664 
C 483.684578 142.146245 484.447708 142.462343 485.243318 142.462343 
z
" clip-path="url(#pe7140c50ae)" style="stroke: #ffffff; stroke-width: 0.48"/>
    <path d="M 421.770682 135.694822 
L 423.270682 134.194822 
L 424.770682 135.694822 
L 426.270682 134.194822 
L 424.770682 132.694822 
L 426.270682 131.194822 
L 424.770682 129.694822 
L 423.270682 131.194822 
L 421.770682 129.694822 
L 420.270682 131.194822 
L 421.770682 132.694822 
L 420.270682 134.194822 
z
" clip-path="url(#pe7140c50ae)" style="fill: #4169e1; stroke: #ffffff; stroke-width: 0.48"/>
    <path d="M 618.538777 125.947448 
L 620.038777 124.447448 
L 621.538777 125.947448 
L 623.038777 124.447448 
L 621.538777 122.947448 
L 623.038777 121.447448 
L 621.538777 119.947448 
L 620.038777 121.447448 
L 618.538777 119.947448 
L 617.038777 121.447448 
L 618.538777 122.947448 
L 617.038777 124.447448 
z
" clip-path="url(#pe7140c50ae)" style="fill: #b22222; stroke: #ffffff; stroke-width: 0.48"/>
    <path d="M 422.593216 146.842331 
L 424.093216 145.342331 
L 425.593216 146.842331 
L 427.093216 145.342331 
L 425.593216 143.842331 
L 427.093216 142.342331 
L 425.593216 140.842331 
L 424.093216 142.342331 
L 422.593216 140.842331 
L 421.093216 142.342331 
L 422.593216 143.842331 
L 421.093216 145.342331 
z
" clip-path="url(#pe7140c50ae)" style="fill: #4169e1; stroke: #ffffff; stroke-width: 0.48"/>
    <path d="M 450.434002 140.419973 
L 451.934002 138.919973 
L 453.434002 140.419973 
L 454.934002 138.919973 
L 453.434002 137.419973 
L 454.934002 135.919973 
L 453.434002 134.419973 
L 451.934002 135.919973 
L 450.434002 134.419973 
L 448.934002 135.919973 
L 450.434002 137.419973 
L 448.934002 138.919973 
z
" clip-path="url(#pe7140c50ae)" style="fill: #4169e1; stroke: #ffffff; stroke-width: 0.48"/>
    <path d="M 527.069291 133.884996 
L 528.569291 132.384996 
L 530.069291 133.884996 
L 531.569291 132.384996 
L 530.069291 130.884996 
L 531.569291 129.384996 
L 530.069291 127.884996 
L 528.569291 129.384996 
L 527.069291 127.884996 
L 525.569291 129.384996 
L 527.069291 130.884996 
L 525.569291 132.384996 
z
" clip-path="url(#pe7140c50ae)" style="fill: #4169e1; stroke: #ffffff; stroke-width: 0.48"/>
    <path d="M 453.106222 131.625908 
C 453.901832 131.625908 454.664962 131.309809 455.227543 130.747229 
C 455.790123 130.184648 456.106222 129.421518 456.106222 128.625908 
C 456.106222 127.830299 455.790123 127.067169 455.227543 126.504588 
C 454.664962 125.942007 453.901832 125.625908 453.106222 125.625908 
C 452.310613 125.625908 451.547483 125.942007 450.984902 126.504588 
C 450.422321 127.067169 450.106222 127.830299 450.106222 128.625908 
C 450.106222 129.421518 450.422321 130.184648 450.984902 130.747229 
C 451.547483 131.309809 452.310613 131.625908 453.106222 131.625908 
z
" clip-path="url(#pe7140c50ae)" style="fill: #b22222; stroke: #ffffff; stroke-width: 0.48"/>
    <path d="M 613.203304 142.479997 
L 614.703304 140.979997 
L 616.203304 142.479997 
L 617.703304 140.979997 
L 616.203304 139.479997 
L 617.703304 137.979997 
L 616.203304 136.479997 
L 614.703304 137.979997 
L 613.203304 136.479997 
L 611.703304 137.979997 
L 613.203304 139.479997 
L 611.703304 140.979997 
z
" clip-path="url(#pe7140c50ae)" style="stroke: #ffffff; stroke-width: 0.48"/>
    <path d="M 578.324796 139.803913 
L 579.824796 138.303913 
L 581.324796 139.803913 
L 582.824796 138.303913 
L 581.324796 136.803913 
L 582.824796 135.303913 
L 581.324796 133.803913 
L 579.824796 135.303913 
L 578.324796 133.803913 
L 576.824796 135.303913 
L 578.324796 136.803913 
L 576.824796 138.303913 
z
" clip-path="url(#pe7140c50ae)" style="fill: #4169e1; stroke: #ffffff; stroke-width: 0.48"/>
    <path d="M 443.235732 161.454868 
L 444.735732 159.954868 
L 446.235732 161.454868 
L 447.735732 159.954868 
L 446.235732 158.454868 
L 447.735732 156.954868 
L 446.235732 155.454868 
L 444.735732 156.954868 
L 443.235732 155.454868 
L 441.735732 156.954868 
L 443.235732 158.454868 
L 441.735732 159.954868 
z
" clip-path="url(#pe7140c50ae)" style="stroke: #ffffff; stroke-width: 0.48"/>
   </g>
   <g id="matplotlib.axis_3">
    <g id="xtick_8">
     <g id="line2d_13">
      <g>
       <use xlink:href="#m7360720c65" x="424.533073" y="246.04" style="stroke: #000000; stroke-width: 0.8"/>
      </g>
     </g>
     <g id="text_41">
      <!-- 60 -->
      <g transform="translate(418.170573 260.638438)scale(0.1 -0.1)">
       <use xlink:href="#DejaVuSans-36"/>
       <use xlink:href="#DejaVuSans-30" x="63.623047"/>
      </g>
     </g>
    </g>
    <g id="xtick_9">
     <g id="line2d_14">
      <g>
       <use xlink:href="#m7360720c65" x="468.518832" y="246.04" style="stroke: #000000; stroke-width: 0.8"/>
      </g>
     </g>
     <g id="text_42">
      <!-- 80 -->
      <g transform="translate(462.156332 260.638438)scale(0.1 -0.1)">
       <use xlink:href="#DejaVuSans-38"/>
       <use xlink:href="#DejaVuSans-30" x="63.623047"/>
      </g>
     </g>
    </g>
    <g id="xtick_10">
     <g id="line2d_15">
      <g>
       <use xlink:href="#m7360720c65" x="512.504592" y="246.04" style="stroke: #000000; stroke-width: 0.8"/>
      </g>
     </g>
     <g id="text_43">
      <!-- 100 -->
      <g transform="translate(502.960842 260.638438)scale(0.1 -0.1)">
       <use xlink:href="#DejaVuSans-31"/>
       <use xlink:href="#DejaVuSans-30" x="63.623047"/>
       <use xlink:href="#DejaVuSans-30" x="127.246094"/>
      </g>
     </g>
    </g>
    <g id="xtick_11">
     <g id="line2d_16">
      <g>
       <use xlink:href="#m7360720c65" x="556.490351" y="246.04" style="stroke: #000000; stroke-width: 0.8"/>
      </g>
     </g>
     <g id="text_44">
      <!-- 120 -->
      <g transform="translate(546.946601 260.638438)scale(0.1 -0.1)">
       <use xlink:href="#DejaVuSans-31"/>
       <use xlink:href="#DejaVuSans-32" x="63.623047"/>
       <use xlink:href="#DejaVuSans-30" x="127.246094"/>
      </g>
     </g>
    </g>
    <g id="xtick_12">
     <g id="line2d_17">
      <g>
       <use xlink:href="#m7360720c65" x="600.47611" y="246.04" style="stroke: #000000; stroke-width: 0.8"/>
      </g>
     </g>
     <g id="text_45">
      <!-- 140 -->
      <g transform="translate(590.93236 260.638438)scale(0.1 -0.1)">
       <use xlink:href="#DejaVuSans-31"/>
       <use xlink:href="#DejaVuSans-34" x="63.623047"/>
       <use xlink:href="#DejaVuSans-30" x="127.246094"/>
      </g>
     </g>
    </g>
    <g id="xtick_13">
     <g id="line2d_18">
      <g>
       <use xlink:href="#m7360720c65" x="644.461869" y="246.04" style="stroke: #000000; stroke-width: 0.8"/>
      </g>
     </g>
     <g id="text_46">
      <!-- 160 -->
      <g transform="translate(634.918119 260.638438)scale(0.1 -0.1)">
       <use xlink:href="#DejaVuSans-31"/>
       <use xlink:href="#DejaVuSans-36" x="63.623047"/>
       <use xlink:href="#DejaVuSans-30" x="127.246094"/>
      </g>
     </g>
    </g>
    <g id="xtick_14">
     <g id="line2d_19">
      <g>
       <use xlink:href="#m7360720c65" x="688.447629" y="246.04" style="stroke: #000000; stroke-width: 0.8"/>
      </g>
     </g>
     <g id="text_47">
      <!-- 180 -->
      <g transform="translate(678.903879 260.638438)scale(0.1 -0.1)">
       <use xlink:href="#DejaVuSans-31"/>
       <use xlink:href="#DejaVuSans-38" x="63.623047"/>
       <use xlink:href="#DejaVuSans-30" x="127.246094"/>
      </g>
     </g>
    </g>
    <g id="text_48">
     <!-- Mean of Two Methods -->
     <g transform="translate(505.482188 274.316562)scale(0.1 -0.1)">
      <defs>
       <path id="DejaVuSans-66" d="M 2375 4863 
L 2375 4384 
L 1825 4384 
Q 1516 4384 1395 4259 
Q 1275 4134 1275 3809 
L 1275 3500 
L 2222 3500 
L 2222 3053 
L 1275 3053 
L 1275 0 
L 697 0 
L 697 3053 
L 147 3053 
L 147 3500 
L 697 3500 
L 697 3744 
Q 697 4328 969 4595 
Q 1241 4863 1831 4863 
L 2375 4863 
z
" transform="scale(0.015625)"/>
       <path id="DejaVuSans-54" d="M -19 4666 
L 3928 4666 
L 3928 4134 
L 2272 4134 
L 2272 0 
L 1638 0 
L 1638 4134 
L -19 4134 
L -19 4666 
z
" transform="scale(0.015625)"/>
       <path id="DejaVuSans-77" d="M 269 3500 
L 844 3500 
L 1563 769 
L 2278 3500 
L 2956 3500 
L 3675 769 
L 4391 3500 
L 4966 3500 
L 4050 0 
L 3372 0 
L 2619 2869 
L 1863 0 
L 1184 0 
L 269 3500 
z
" transform="scale(0.015625)"/>
       <path id="DejaVuSans-64" d="M 2906 2969 
L 2906 4863 
L 3481 4863 
L 3481 0 
L 2906 0 
L 2906 525 
Q 2725 213 2448 61 
Q 2172 -91 1784 -91 
Q 1150 -91 751 415 
Q 353 922 353 1747 
Q 353 2572 751 3078 
Q 1150 3584 1784 3584 
Q 2172 3584 2448 3432 
Q 2725 3281 2906 2969 
z
M 947 1747 
Q 947 1113 1208 752 
Q 1469 391 1925 391 
Q 2381 391 2643 752 
Q 2906 1113 2906 1747 
Q 2906 2381 2643 2742 
Q 2381 3103 1925 3103 
Q 1469 3103 1208 2742 
Q 947 2381 947 1747 
z
" transform="scale(0.015625)"/>
      </defs>
      <use xlink:href="#DejaVuSans-4d"/>
      <use xlink:href="#DejaVuSans-65" x="86.279297"/>
      <use xlink:href="#DejaVuSans-61" x="147.802734"/>
      <use xlink:href="#DejaVuSans-6e" x="209.082031"/>
      <use xlink:href="#DejaVuSans-20" x="272.460938"/>
      <use xlink:href="#DejaVuSans-6f" x="304.248047"/>
      <use xlink:href="#DejaVuSans-66" x="365.429688"/>
      <use xlink:href="#DejaVuSans-20" x="400.634766"/>
      <use xlink:href="#DejaVuSans-54" x="432.421875"/>
      <use xlink:href="#DejaVuSans-77" x="477.005859"/>
      <use xlink:href="#DejaVuSans-6f" x="558.792969"/>
      <use xlink:href="#DejaVuSans-20" x="619.974609"/>
      <use xlink:href="#DejaVuSans-4d" x="651.761719"/>
      <use xlink:href="#DejaVuSans-65" x="738.041016"/>
      <use xlink:href="#DejaVuSans-74" x="799.564453"/>
      <use xlink:href="#DejaVuSans-68" x="838.773438"/>
      <use xlink:href="#DejaVuSans-6f" x="902.152344"/>
      <use xlink:href="#DejaVuSans-64" x="963.333984"/>
      <use xlink:href="#DejaVuSans-73" x="1026.810547"/>
     </g>
    </g>
   </g>
   <g id="matplotlib.axis_4">
    <g id="ytick_5">
     <g id="line2d_20">
      <g>
       <use xlink:href="#mf2547da5f9" x="409.655" y="230.821143" style="stroke: #000000; stroke-width: 0.8"/>
      </g>
     </g>
     <g id="text_49">
      <!-- 150 -->
      <g transform="translate(375.187813 234.620362)scale(0.1 -0.1)">
       <defs>
        <path id="DejaVuSans-2212" d="M 678 2272 
L 4684 2272 
L 4684 1741 
L 678 1741 
L 678 2272 
z
" transform="scale(0.015625)"/>
       </defs>
       <use xlink:href="#DejaVuSans-2212"/>
       <use xlink:href="#DejaVuSans-31" x="83.789062"/>
       <use xlink:href="#DejaVuSans-35" x="147.412109"/>
       <use xlink:href="#DejaVuSans-30" x="211.035156"/>
      </g>
     </g>
    </g>
    <g id="ytick_6">
     <g id="line2d_21">
      <g>
       <use xlink:href="#mf2547da5f9" x="409.655" y="200.383429" style="stroke: #000000; stroke-width: 0.8"/>
      </g>
     </g>
     <g id="text_50">
      <!-- 100 -->
      <g transform="translate(375.187813 204.182647)scale(0.1 -0.1)">
       <use xlink:href="#DejaVuSans-2212"/>
       <use xlink:href="#DejaVuSans-31" x="83.789062"/>
       <use xlink:href="#DejaVuSans-30" x="147.412109"/>
       <use xlink:href="#DejaVuSans-30" x="211.035156"/>
      </g>
     </g>
    </g>
    <g id="ytick_7">
     <g id="line2d_22">
      <g>
       <use xlink:href="#mf2547da5f9" x="409.655" y="169.945714" style="stroke: #000000; stroke-width: 0.8"/>
      </g>
     </g>
     <g id="text_51">
      <!-- 50 -->
      <g transform="translate(381.550313 173.744933)scale(0.1 -0.1)">
       <use xlink:href="#DejaVuSans-2212"/>
       <use xlink:href="#DejaVuSans-35" x="83.789062"/>
       <use xlink:href="#DejaVuSans-30" x="147.412109"/>
      </g>
     </g>
    </g>
    <g id="ytick_8">
     <g id="line2d_23">
      <g>
       <use xlink:href="#mf2547da5f9" x="409.655" y="139.508" style="stroke: #000000; stroke-width: 0.8"/>
      </g>
     </g>
     <g id="text_52">
      <!-- 0 -->
      <g transform="translate(396.2925 143.307219)scale(0.1 -0.1)">
       <use xlink:href="#DejaVuSans-30"/>
      </g>
     </g>
    </g>
    <g id="ytick_9">
     <g id="line2d_24">
      <g>
       <use xlink:href="#mf2547da5f9" x="409.655" y="109.070286" style="stroke: #000000; stroke-width: 0.8"/>
      </g>
     </g>
     <g id="text_53">
      <!-- 50 -->
      <g transform="translate(389.93 112.869504)scale(0.1 -0.1)">
       <use xlink:href="#DejaVuSans-35"/>
       <use xlink:href="#DejaVuSans-30" x="63.623047"/>
      </g>
     </g>
    </g>
    <g id="ytick_10">
     <g id="line2d_25">
      <g>
       <use xlink:href="#mf2547da5f9" x="409.655" y="78.632571" style="stroke: #000000; stroke-width: 0.8"/>
      </g>
     </g>
     <g id="text_54">
      <!-- 100 -->
      <g transform="translate(383.5675 82.43179)scale(0.1 -0.1)">
       <use xlink:href="#DejaVuSans-31"/>
       <use xlink:href="#DejaVuSans-30" x="63.623047"/>
       <use xlink:href="#DejaVuSans-30" x="127.246094"/>
      </g>
     </g>
    </g>
    <g id="ytick_11">
     <g id="line2d_26">
      <g>
       <use xlink:href="#mf2547da5f9" x="409.655" y="48.194857" style="stroke: #000000; stroke-width: 0.8"/>
      </g>
     </g>
     <g id="text_55">
      <!-- 150 -->
      <g transform="translate(383.5675 51.994076)scale(0.1 -0.1)">
       <use xlink:href="#DejaVuSans-31"/>
       <use xlink:href="#DejaVuSans-35" x="63.623047"/>
       <use xlink:href="#DejaVuSans-30" x="127.246094"/>
      </g>
     </g>
    </g>
    <g id="text_56">
     <!-- Difference Between Methods -->
     <g transform="translate(369.108125 211.772063)rotate(-90)scale(0.1 -0.1)">
      <use xlink:href="#DejaVuSans-44"/>
      <use xlink:href="#DejaVuSans-69" x="77.001953"/>
      <use xlink:href="#DejaVuSans-66" x="104.785156"/>
      <use xlink:href="#DejaVuSans-66" x="139.990234"/>
      <use xlink:href="#DejaVuSans-65" x="175.195312"/>
      <use xlink:href="#DejaVuSans-72" x="236.71875"/>
      <use xlink:href="#DejaVuSans-65" x="275.582031"/>
      <use xlink:href="#DejaVuSans-6e" x="337.105469"/>
      <use xlink:href="#DejaVuSans-63" x="400.484375"/>
      <use xlink:href="#DejaVuSans-65" x="455.464844"/>
      <use xlink:href="#DejaVuSans-20" x="516.988281"/>
      <use xlink:href="#DejaVuSans-42" x="548.775391"/>
      <use xlink:href="#DejaVuSans-65" x="617.378906"/>
      <use xlink:href="#DejaVuSans-74" x="678.902344"/>
      <use xlink:href="#DejaVuSans-77" x="718.111328"/>
      <use xlink:href="#DejaVuSans-65" x="799.898438"/>
      <use xlink:href="#DejaVuSans-65" x="861.421875"/>
      <use xlink:href="#DejaVuSans-6e" x="922.945312"/>
      <use xlink:href="#DejaVuSans-20" x="986.324219"/>
      <use xlink:href="#DejaVuSans-4d" x="1018.111328"/>
      <use xlink:href="#DejaVuSans-65" x="1104.390625"/>
      <use xlink:href="#DejaVuSans-74" x="1165.914062"/>
      <use xlink:href="#DejaVuSans-68" x="1205.123047"/>
      <use xlink:href="#DejaVuSans-6f" x="1268.501953"/>
      <use xlink:href="#DejaVuSans-64" x="1329.683594"/>
      <use xlink:href="#DejaVuSans-73" x="1393.160156"/>
     </g>
    </g>
   </g>
   <g id="line2d_27">
    <path d="M 409.655 139.508 
L 709.2 139.508 
" clip-path="url(#pe7140c50ae)" style="fill: none; stroke: #000000; stroke-width: 1.5; stroke-linecap: square"/>
   </g>
   <g id="line2d_28">
    <path d="M 409.655 138.777746 
L 709.2 138.777746 
" clip-path="url(#pe7140c50ae)" style="fill: none; stroke: #000000; stroke-width: 2; stroke-linecap: square"/>
   </g>
   <g id="line2d_29">
    <path d="M 409.655 117.480246 
L 709.2 117.480246 
" clip-path="url(#pe7140c50ae)" style="fill: none; stroke-dasharray: 5.55,2.4; stroke-dashoffset: 0; stroke: #000000; stroke-width: 1.5"/>
   </g>
   <g id="line2d_30">
    <path d="M 409.655 160.075245 
L 709.2 160.075245 
" clip-path="url(#pe7140c50ae)" style="fill: none; stroke-dasharray: 5.55,2.4; stroke-dashoffset: 0; stroke: #000000; stroke-width: 1.5"/>
   </g>
   <g id="patch_9">
    <path d="M 409.655 246.04 
L 409.655 32.976 
" style="fill: none; stroke: #000000; stroke-width: 0.8; stroke-linejoin: miter; stroke-linecap: square"/>
   </g>
   <g id="patch_10">
    <path d="M 709.2 246.04 
L 709.2 32.976 
" style="fill: none; stroke: #000000; stroke-width: 0.8; stroke-linejoin: miter; stroke-linecap: square"/>
   </g>
   <g id="patch_11">
    <path d="M 409.655 246.04 
L 709.2 246.04 
" style="fill: none; stroke: #000000; stroke-width: 0.8; stroke-linejoin: miter; stroke-linecap: square"/>
   </g>
   <g id="patch_12">
    <path d="M 409.655 32.976 
L 709.2 32.976 
" style="fill: none; stroke: #000000; stroke-width: 0.8; stroke-linejoin: miter; stroke-linecap: square"/>
   </g>
   <g id="text_57">
    <!-- 50 -->
    <g style="opacity: 0.7" transform="translate(575.52079 127.084676)scale(0.06 -0.06)">
     <use xlink:href="#DejaVuSans-35"/>
     <use xlink:href="#DejaVuSans-30" x="63.623047"/>
    </g>
   </g>
   <g id="text_58">
    <!-- 108 -->
    <g style="opacity: 0.7" transform="translate(483.675225 155.140335)scale(0.06 -0.06)">
     <use xlink:href="#DejaVuSans-31"/>
     <use xlink:href="#DejaVuSans-30" x="63.623047"/>
     <use xlink:href="#DejaVuSans-38" x="127.246094"/>
    </g>
   </g>
   <g id="text_59">
    <!-- 138 -->
    <g style="opacity: 0.7" transform="translate(641.806229 146.593425)scale(0.06 -0.06)">
     <use xlink:href="#DejaVuSans-31"/>
     <use xlink:href="#DejaVuSans-33" x="63.623047"/>
     <use xlink:href="#DejaVuSans-38" x="127.246094"/>
    </g>
   </g>
   <g id="text_60">
    <!-- 154 -->
    <g style="opacity: 0.7" transform="translate(470.398124 152.760106)scale(0.06 -0.06)">
     <use xlink:href="#DejaVuSans-31"/>
     <use xlink:href="#DejaVuSans-35" x="63.623047"/>
     <use xlink:href="#DejaVuSans-34" x="127.246094"/>
    </g>
   </g>
   <g id="text_61">
    <!-- 51 -->
    <g style="opacity: 0.7" transform="translate(564.375898 120.796853)scale(0.06 -0.06)">
     <use xlink:href="#DejaVuSans-35"/>
     <use xlink:href="#DejaVuSans-31" x="63.623047"/>
    </g>
   </g>
   <g id="text_62">
    <!-- 68 -->
    <g style="opacity: 0.7" transform="translate(434.42657 138.327759)scale(0.06 -0.06)">
     <use xlink:href="#DejaVuSans-36"/>
     <use xlink:href="#DejaVuSans-38" x="63.623047"/>
    </g>
   </g>
   <g id="text_63">
    <!-- 75 -->
    <g style="opacity: 0.7" transform="translate(695.584318 139.167231)scale(0.06 -0.06)">
     <use xlink:href="#DejaVuSans-37"/>
     <use xlink:href="#DejaVuSans-35" x="63.623047"/>
    </g>
   </g>
   <g id="text_64">
    <!-- 82 -->
    <g style="opacity: 0.7" transform="translate(485.243318 138.214531)scale(0.06 -0.06)">
     <use xlink:href="#DejaVuSans-38"/>
     <use xlink:href="#DejaVuSans-32" x="63.623047"/>
    </g>
   </g>
   <g id="text_65">
    <!-- 91 -->
    <g style="opacity: 0.7" transform="translate(423.270682 131.44701)scale(0.06 -0.06)">
     <use xlink:href="#DejaVuSans-39"/>
     <use xlink:href="#DejaVuSans-31" x="63.623047"/>
    </g>
   </g>
   <g id="text_66">
    <!-- 96 -->
    <g style="opacity: 0.7" transform="translate(620.038777 121.699636)scale(0.06 -0.06)">
     <use xlink:href="#DejaVuSans-39"/>
     <use xlink:href="#DejaVuSans-36" x="63.623047"/>
    </g>
   </g>
   <g id="text_67">
    <!-- 133 -->
    <g style="opacity: 0.7" transform="translate(424.093216 142.594518)scale(0.06 -0.06)">
     <use xlink:href="#DejaVuSans-31"/>
     <use xlink:href="#DejaVuSans-33" x="63.623047"/>
     <use xlink:href="#DejaVuSans-33" x="127.246094"/>
    </g>
   </g>
   <g id="text_68">
    <!-- 135 -->
    <g style="opacity: 0.7" transform="translate(451.934002 136.17216)scale(0.06 -0.06)">
     <use xlink:href="#DejaVuSans-31"/>
     <use xlink:href="#DejaVuSans-33" x="63.623047"/>
     <use xlink:href="#DejaVuSans-35" x="127.246094"/>
    </g>
   </g>
   <g id="text_69">
    <!-- 145 -->
    <g style="opacity: 0.7" transform="translate(528.569291 129.637183)scale(0.06 -0.06)">
     <use xlink:href="#DejaVuSans-31"/>
     <use xlink:href="#DejaVuSans-34" x="63.623047"/>
     <use xlink:href="#DejaVuSans-35" x="127.246094"/>
    </g>
   </g>
   <g id="text_70">
    <!-- 151 -->
    <g style="opacity: 0.7" transform="translate(453.106222 127.378096)scale(0.06 -0.06)">
     <use xlink:href="#DejaVuSans-31"/>
     <use xlink:href="#DejaVuSans-35" x="63.623047"/>
     <use xlink:href="#DejaVuSans-31" x="127.246094"/>
    </g>
   </g>
   <g id="text_71">
    <!-- 272 -->
    <g style="opacity: 0.7" transform="translate(614.703304 138.232185)scale(0.06 -0.06)">
     <use xlink:href="#DejaVuSans-32"/>
     <use xlink:href="#DejaVuSans-37" x="63.623047"/>
     <use xlink:href="#DejaVuSans-32" x="127.246094"/>
    </g>
   </g>
   <g id="text_72">
    <!-- 41 -->
    <g style="opacity: 0.7" transform="translate(579.824796 135.556101)scale(0.06 -0.06)">
     <use xlink:href="#DejaVuSans-34"/>
     <use xlink:href="#DejaVuSans-31" x="63.623047"/>
    </g>
   </g>
   <g id="text_73">
    <!-- 125 -->
    <g style="opacity: 0.7" transform="translate(444.735732 157.207056)scale(0.06 -0.06)">
     <use xlink:href="#DejaVuSans-31"/>
     <use xlink:href="#DejaVuSans-32" x="63.623047"/>
     <use xlink:href="#DejaVuSans-35" x="127.246094"/>
    </g>
   </g>
   <g id="text_74">
    <!-- Mean offset: 1.20 -->
    <g transform="translate(628.762855 136.541925)scale(0.09 -0.09)">
     <defs>
      <path id="DejaVuSans-3a" d="M 750 794 
L 1409 794 
L 1409 0 
L 750 0 
L 750 794 
z
M 750 3309 
L 1409 3309 
L 1409 2516 
L 750 2516 
L 750 3309 
z
" transform="scale(0.015625)"/>
     </defs>
     <use xlink:href="#DejaVuSans-4d"/>
     <use xlink:href="#DejaVuSans-65" x="86.279297"/>
     <use xlink:href="#DejaVuSans-61" x="147.802734"/>
     <use xlink:href="#DejaVuSans-6e" x="209.082031"/>
     <use xlink:href="#DejaVuSans-20" x="272.460938"/>
     <use xlink:href="#DejaVuSans-6f" x="304.248047"/>
     <use xlink:href="#DejaVuSans-66" x="365.429688"/>
     <use xlink:href="#DejaVuSans-66" x="400.634766"/>
     <use xlink:href="#DejaVuSans-73" x="435.839844"/>
     <use xlink:href="#DejaVuSans-65" x="487.939453"/>
     <use xlink:href="#DejaVuSans-74" x="549.462891"/>
     <use xlink:href="#DejaVuSans-3a" x="588.671875"/>
     <use xlink:href="#DejaVuSans-20" x="622.363281"/>
     <use xlink:href="#DejaVuSans-31" x="654.150391"/>
     <use xlink:href="#DejaVuSans-2e" x="717.773438"/>
     <use xlink:href="#DejaVuSans-32" x="749.560547"/>
     <use xlink:href="#DejaVuSans-30" x="813.183594"/>
    </g>
   </g>
   <g id="text_75">
    <!-- B -->
    <g transform="translate(379.7005 22.307412)scale(0.14 -0.14)">
     <defs>
      <path id="DejaVuSans-Bold-42" d="M 2456 2859 
Q 2741 2859 2887 2984 
Q 3034 3109 3034 3353 
Q 3034 3594 2887 3720 
Q 2741 3847 2456 3847 
L 1791 3847 
L 1791 2859 
L 2456 2859 
z
M 2497 819 
Q 2859 819 3042 972 
Q 3225 1125 3225 1434 
Q 3225 1738 3044 1889 
Q 2863 2041 2497 2041 
L 1791 2041 
L 1791 819 
L 2497 819 
z
M 3616 2497 
Q 4003 2384 4215 2081 
Q 4428 1778 4428 1338 
Q 4428 663 3972 331 
Q 3516 0 2584 0 
L 588 0 
L 588 4666 
L 2394 4666 
Q 3366 4666 3802 4372 
Q 4238 4078 4238 3431 
Q 4238 3091 4078 2852 
Q 3919 2613 3616 2497 
z
" transform="scale(0.015625)"/>
     </defs>
     <use xlink:href="#DejaVuSans-Bold-42"/>
    </g>
   </g>
   <g id="text_76">
    <!-- Bland-Altman Plot -->
    <g transform="translate(505.66375 26.976)scale(0.12 -0.12)">
     <defs>
      <path id="DejaVuSans-41" d="M 2188 4044 
L 1331 1722 
L 3047 1722 
L 2188 4044 
z
M 1831 4666 
L 2547 4666 
L 4325 0 
L 3669 0 
L 3244 1197 
L 1141 1197 
L 716 0 
L 50 0 
L 1831 4666 
z
" transform="scale(0.015625)"/>
     </defs>
     <use xlink:href="#DejaVuSans-42"/>
     <use xlink:href="#DejaVuSans-6c" x="68.603516"/>
     <use xlink:href="#DejaVuSans-61" x="96.386719"/>
     <use xlink:href="#DejaVuSans-6e" x="157.666016"/>
     <use xlink:href="#DejaVuSans-64" x="221.044922"/>
     <use xlink:href="#DejaVuSans-2d" x="284.521484"/>
     <use xlink:href="#DejaVuSans-41" x="318.355469"/>
     <use xlink:href="#DejaVuSans-6c" x="386.763672"/>
     <use xlink:href="#DejaVuSans-74" x="414.546875"/>
     <use xlink:href="#DejaVuSans-6d" x="453.755859"/>
     <use xlink:href="#DejaVuSans-61" x="551.167969"/>
     <use xlink:href="#DejaVuSans-6e" x="612.447266"/>
     <use xlink:href="#DejaVuSans-20" x="675.826172"/>
     <use xlink:href="#DejaVuSans-50" x="707.613281"/>
     <use xlink:href="#DejaVuSans-6c" x="767.916016"/>
     <use xlink:href="#DejaVuSans-6f" x="795.699219"/>
     <use xlink:href="#DejaVuSans-74" x="856.880859"/>
    </g>
   </g>
   <g id="legend_2">
    <g id="patch_13">
     <path d="M 639.645 242.04 
L 703.6 242.04 
Q 705.2 242.04 705.2 240.44 
L 705.2 217.755 
Q 705.2 216.155 703.6 216.155 
L 639.645 216.155 
Q 638.045 216.155 638.045 217.755 
L 638.045 240.44 
Q 638.045 242.04 639.645 242.04 
z
" style="fill: #ffffff; opacity: 0.8; stroke: #cccccc; stroke-linejoin: miter"/>
    </g>
    <g id="line2d_31">
     <path d="M 641.245 222.63375 
L 649.245 222.63375 
L 657.245 222.63375 
" style="fill: none; stroke: #000000; stroke-width: 2; stroke-linecap: square"/>
    </g>
    <g id="text_77">
     <!-- Mean Diff -->
     <g transform="translate(663.645 225.43375)scale(0.08 -0.08)">
      <use xlink:href="#DejaVuSans-4d"/>
      <use xlink:href="#DejaVuSans-65" x="86.279297"/>
      <use xlink:href="#DejaVuSans-61" x="147.802734"/>
      <use xlink:href="#DejaVuSans-6e" x="209.082031"/>
      <use xlink:href="#DejaVuSans-20" x="272.460938"/>
      <use xlink:href="#DejaVuSans-44" x="304.248047"/>
      <use xlink:href="#DejaVuSans-69" x="381.25"/>
      <use xlink:href="#DejaVuSans-66" x="409.033203"/>
      <use xlink:href="#DejaVuSans-66" x="444.238281"/>
     </g>
    </g>
    <g id="line2d_32">
     <path d="M 641.245 234.37625 
L 649.245 234.37625 
L 657.245 234.37625 
" style="fill: none; stroke-dasharray: 5.55,2.4; stroke-dashoffset: 0; stroke: #000000; stroke-width: 1.5"/>
    </g>
    <g id="text_78">
     <!-- 1.96 SD -->
     <g transform="translate(663.645 237.17625)scale(0.08 -0.08)">
      <defs>
       <path id="DejaVuSans-b1" d="M 2944 4013 
L 2944 2803 
L 4684 2803 
L 4684 2272 
L 2944 2272 
L 2944 1063 
L 2419 1063 
L 2419 2272 
L 678 2272 
L 678 2803 
L 2419 2803 
L 2419 4013 
L 2944 4013 
z
M 678 531 
L 4684 531 
L 4684 0 
L 678 0 
L 678 531 
z
" transform="scale(0.015625)"/>
      </defs>
      <use xlink:href="#DejaVuSans-b1"/>
      <use xlink:href="#DejaVuSans-31" x="83.789062"/>
      <use xlink:href="#DejaVuSans-2e" x="147.412109"/>
      <use xlink:href="#DejaVuSans-39" x="179.199219"/>
      <use xlink:href="#DejaVuSans-36" x="242.822266"/>
      <use xlink:href="#DejaVuSans-20" x="306.445312"/>
      <use xlink:href="#DejaVuSans-53" x="338.232422"/>
      <use xlink:href="#DejaVuSans-44" x="401.708984"/>
     </g>
    </g>
   </g>
  </g>
 </g>
 <defs>
  <clipPath id="pd69f6b95a7">
   <rect x="50.87" y="32.976" width="299.545" height="213.064"/>
  </clipPath>
  <clipPath id="pe7140c50ae">
   <rect x="409.655" y="32.976" width="299.545" height="213.064"/>
  </clipPath>
 </defs>
</svg>
